<?xml version="1.0" standalone="no"?>
<!DOCTYPE svg PUBLIC "-//W3C//DTD SVG 1.1//EN" "http://www.w3.org/Graphics/SVG/1.1/DTD/svg11.dtd" >
<svg xmlns="http://www.w3.org/2000/svg">
<metadata>Generated by IcoMoon</metadata>
<defs>
<font id="icomoon" horiz-adv-x="512">
<font-face units-per-em="512" ascent="480" descent="-32" />
<missing-glyph horiz-adv-x="512" />
<glyph unicode="&#x20;" d="" horiz-adv-x="256" />
<glyph unicode="&#xe600;" d="M406.187 411.307c-37.546 44.373-92.16 66.56-162.133 66.56-71.68 0-129.707-23.894-172.374-69.974s-66.56-109.226-69.974-186.026c-3.413-78.507 15.36-141.654 54.614-187.733s95.574-68.267 167.254-68.267c18.774 0 35.84 1.707 54.613 6.827s35.84 10.24 47.786 18.774l5.12 3.413-13.654 52.906-8.534-3.413c-10.24-5.12-23.894-8.534-39.253-11.947s-30.72-5.12-44.374-5.12c-52.906 0-90.453 17.067-119.466 51.2-27.306 34.134-39.254 83.626-37.547 143.36 3.413 59.733 20.48 109.226 51.2 145.067s71.68 54.613 122.88 54.613c54.613 0 93.866-17.067 119.466-49.493 25.6-34.134 37.546-81.92 34.134-141.654-1.707-27.306-8.534-51.2-18.774-69.974-10.24-17.067-25.6-25.6-42.666-25.6-3.413 0-5.12 0-8.534 5.12-1.707 3.413-3.413 10.24-3.413 30.72l13.654 151.894 3.413 3.413-3.413 1.707v1.707h-3.413c-15.36 10.24-29.014 17.066-42.666 22.186s-30.72 6.826-52.906 6.826c-32.427 0-59.733-15.36-81.92-44.373-22.186-27.307-35.84-66.56-39.254-112.64-3.413-35.84 1.707-66.56 15.36-88.747 15.36-23.894 35.84-35.84 63.147-35.84 17.066 0 32.427 3.413 44.374 11.947 8.534 5.12 17.066 13.654 23.893 22.187 5.12-8.534 10.24-17.067 18.774-22.187 11.947-8.534 25.6-13.654 40.96-13.654 44.373 0 78.507 15.36 100.694 44.373s34.134 64.853 35.84 104.106c3.413 81.92-15.36 143.36-52.906 187.733zM254.293 174.080c0-1.707 0-1.707 0-3.413-5.12-10.24-11.947-17.067-18.774-20.48s-15.36-5.12-23.893-5.12c-8.534 0-13.654 3.413-17.066 13.654-5.12 10.24-6.827 25.6-5.12 47.786 3.413 32.427 10.24 58.026 18.774 75.094 8.534 15.36 22.186 22.186 39.254 22.186 3.413 0 8.533 0 11.946-1.707 1.707 0 3.413 0 5.12-1.707l-10.24-126.293z" horiz-adv-x="461" />
<glyph unicode="&#xe601;" d="M482.986 122.88c-35.84 0-69.974 5.12-102.4 15.36-10.24 3.413-20.48 1.707-29.014-6.827l-61.44-63.147c-80.214 40.96-146.774 107.52-187.733 187.733l63.147 63.147c8.534 8.534 10.24 18.774 6.827 29.013-10.24 32.427-17.066 66.56-17.066 102.4 1.707 15.36-11.946 27.306-27.306 27.306h-98.987c-15.36 0-29.014-11.946-29.014-29.013 0-266.24 216.746-482.987 482.986-482.987 15.36 0 29.014 11.947 29.014 29.014v98.987c0 15.36-11.947 29.014-29.014 29.014z" />
<glyph unicode="&#xe602;" d="M269.654 469.333h-215.040c-25.6 0-46.080-20.48-46.080-46.080v-402.774c0-25.6 20.48-46.080 46.080-46.080h216.746c25.6 0 46.080 20.48 46.080 46.080v402.774c0 25.6-22.187 46.080-47.786 46.080zM162.133 5.12c-17.066 0-30.72 13.654-30.72 30.72s13.654 30.72 30.72 30.72c17.066 0 30.72-13.654 30.72-30.72s-13.654-30.72-30.72-30.72zM285.014 98.987h-245.76v308.906h247.466v-308.906z" horiz-adv-x="325" />
<glyph unicode="&#xe603;" d="M486.4 314.027h-13.654c-22.187 93.867-107.52 163.84-208.214 163.84s-186.026-69.974-208.214-163.84h-13.654c-20.48 0-37.547-17.066-37.547-37.546v-151.893c0-20.48 17.067-37.546 37.547-37.546h20.48c13.653-29.014 35.84-54.613 66.56-73.387 0-1.707 0-1.707 0-3.413 0-25.6 20.48-46.080 46.080-46.080s46.080 20.48 46.080 46.080c0 25.6-20.48 46.080-46.080 46.080-11.947 0-20.48-3.413-29.013-10.24-18.773 11.947-32.427 27.307-42.666 42.666 15.36 5.12 25.6 18.774 25.6 35.84v151.894c0 20.48-17.067 37.546-37.547 37.546 22.186 73.387 90.453 126.293 170.667 126.293s148.48-54.613 170.666-128v0c-20.48 0-37.546-17.066-37.546-37.546v-151.894c0-20.48 17.067-37.546 37.546-37.546h51.2c20.48 0 37.546 17.067 37.546 37.546v151.894c1.707 22.186-15.36 39.253-35.84 39.253z" horiz-adv-x="529" />
<glyph unicode="&#xe604;" d="M187.733 477.867c-102.4 0-184.32-80.214-184.32-179.2 0-134.827 184.32-332.8 184.32-332.8s184.32 197.974 184.32 332.8c0 98.987-81.92 179.2-184.32 179.2zM187.733 235.52c-35.84 0-66.56 29.014-66.56 64.853s29.013 64.853 66.56 64.853 66.56-29.014 66.56-64.853c0-37.546-30.72-64.853-66.56-64.853z" horiz-adv-x="376" />
<glyph unicode="&#xe605;" d="M206.506 252.587c39.254 18.773 66.56 59.733 66.56 105.814-1.707 66.56-54.613 119.466-119.466 119.466s-117.76-52.906-117.76-117.76c0-46.080 27.306-87.040 66.56-105.814-54.614-20.48-93.867-73.387-93.867-136.534v-116.053c42.666-22.187 92.16-35.84 145.067-35.84s102.4 13.654 146.774 35.84v116.053c0 61.44-39.254 114.346-93.867 134.827z" horiz-adv-x="307" />
<glyph unicode="&#xe606;" d="M5.296 221.867h105.931v-250.703h-105.931v250.703zM127.117 161.839v-187.145c0 0 324.855-19.42 346.041 0 19.421 17.655 14.124 47.669 14.124 47.669s33.545 21.186 33.545 40.607c0 19.421 1.765 42.373 1.765 42.373s21.186 37.076 17.655 52.966c-3.531 14.124-15.889 47.669-15.889 47.669s28.249 24.717 15.889 60.027c-95.338 38.841-176.552 0-211.862 8.828 24.717 35.31 98.869 203.034 8.827 203.034-70.62 0-47.669-141.241-125.351-178.317-84.745-42.373-84.745-137.711-84.745-137.711z" horiz-adv-x="548" />
<glyph unicode="&#xe607;" d="M5.296 470.805h105.931v-250.703h-105.931v250.703zM127.117 281.894v187.145c0 0 324.855 19.421 346.041 0 19.421-17.655 14.124-47.669 14.124-47.669s33.545-21.186 33.545-40.607 1.765-42.373 1.765-42.373 21.186-37.076 17.655-52.966c-3.531-14.124-15.889-47.669-15.889-47.669s28.249-24.717 15.889-60.028c-95.338-38.841-176.552 0-211.862-8.827 26.483-35.31 98.869-203.034 8.827-203.034-70.62 0-47.669 141.241-125.351 178.317-84.745 42.373-84.745 137.711-84.745 137.711z" horiz-adv-x="548" />
<glyph unicode="&#xe608;" d="M273.655 477.867l82.98-167.724 185.38-28.248-134.179-130.649 31.779-185.38-165.958 88.276-165.958-88.276 31.78 185.38-134.179 130.649 185.38 28.249z" horiz-adv-x="548" />
<glyph unicode="&#xe609;" d="M327.68 460.8c-10.24 5.12-35.84 17.067-52.906 17.067-25.6 0-35.84-15.36-39.254-23.894l-116.053-308.906-27.306 88.746c-3.413 10.24-13.653 27.306-42.666 27.306-30.72 0-40.96-18.774-42.666-27.306l-1.707-5.12c-3.413-17.066 15.36-80.213 27.306-116.054l44.373-122.88c5.12-11.947 17.067-23.893 47.787-23.893s42.667 13.654 46.080 23.894l177.494 416.426c3.413 5.12 3.413 11.947 3.413 18.774 1.707 8.534-3.413 23.893-23.894 35.84z" horiz-adv-x="359" />
<glyph unicode="&#xe60a;" d="M332.8 221.867l149.943 159.086c14.628 14.628 14.628 40.228-1.829 54.857l-32.914 32.914c-14.628 14.629-40.228 14.629-54.857-1.828l-146.286-153.6-146.286 153.6c-14.629 14.629-40.228 16.457-54.857 1.829l-32.914-32.914c-14.629-14.629-16.457-40.229-1.829-54.857l149.943-159.085-149.943-159.086c-14.629-14.628-14.629-40.228 1.829-54.857l32.914-32.914c14.629-14.629 40.228-14.629 54.857 1.829l146.286 153.6 146.286-153.6c14.628-14.629 40.228-16.457 54.857-1.829l32.914 32.914c14.628 14.628 16.457 40.228 1.829 54.857l-149.943 159.086z" horiz-adv-x="494" />
<glyph unicode="&#xe60b;" d="M107.52 477.867h-78.507c-15.36 0-27.306-11.947-27.306-29.014v-283.307c0-15.36 11.947-29.014 29.014-29.014h76.8c15.36 0 29.013 11.947 29.013 29.014v283.307c-1.707 17.067-13.653 29.014-29.013 29.014zM107.52 98.987h-78.507c-15.36 0-29.014-11.947-29.014-29.014v-76.8c0-15.36 11.947-29.013 29.014-29.013h76.8c15.36 0 29.014 11.947 29.014 29.014v76.8c0 17.067-11.947 29.014-27.306 29.014z" horiz-adv-x="137" />
<glyph unicode="&#xe60c;" d="M277.943-24.99l215.772 241.372c9.143 9.143 12.8 23.772 9.143 34.743-5.486 12.8-16.457 20.114-29.257 20.114h-111.543v173.714c0 18.286-14.628 32.915-32.914 32.915h-146.286c-18.286 0-32.915-14.629-32.915-32.915v-173.714h-109.715c-12.8 0-25.6-7.314-29.257-20.114-1.829-3.657-1.829-7.315-1.829-10.971 0-9.143 3.657-18.286 10.972-23.772l215.772-243.2c10.971-10.972 29.257-10.972 42.057 1.829z" />
<glyph unicode="&#xe60d;" d="M234.057 468.724l-215.772-241.371c-9.143-9.143-12.8-23.772-9.143-34.743 5.486-12.8 16.457-20.115 29.257-20.115h111.543v-173.714c0-18.286 14.629-32.914 32.915-32.914h146.286c18.286 0 32.914 14.628 32.914 32.914v173.714h111.543c12.8 0 25.6 7.315 29.257 20.115 1.829 3.657 1.829 7.315 1.829 10.971 0 9.143-3.657 18.286-10.971 23.772l-215.772 241.371c-12.8 12.8-31.085 12.8-43.886 0z" />
<glyph unicode="&#xe60e;" d="M519.314 243.81l-248.685 223.085c-9.143 10.971-23.772 12.8-36.572 9.143-12.8-5.486-21.943-16.457-21.943-31.085v-115.2h-177.371c-18.285 0-32.914-14.628-32.914-32.915v-148.114c0-18.286 14.629-32.914 32.914-32.914h179.2v-115.2c0-12.8 9.143-25.6 21.943-31.086 1.828-3.657 5.486-3.657 10.971-3.657 9.143 0 18.285 3.657 23.771 10.972l248.686 223.085c12.8 12.8 12.8 31.085 0 43.886z" horiz-adv-x="531" />
<glyph unicode="&#xe60f;" d="M10.972 199.924l248.685-223.086c9.143-10.971 23.772-12.8 36.572-9.143 12.8 5.486 21.943 16.457 21.943 31.086v115.2h179.2c18.285 0 32.914 14.628 32.914 32.914v149.943c0 18.285-14.629 32.914-32.914 32.914h-179.2v115.2c0 12.8-9.143 25.6-21.943 31.086-3.657 1.828-7.315 1.828-12.8 1.828-9.143 0-18.286-3.657-23.772-10.971l-248.685-223.085c-12.8-12.8-12.8-31.086 0-43.885z" horiz-adv-x="531" />
<glyph unicode="&#xe610;" d="M42.666 131.413l100.694-73.387 172.374 238.933-100.694 73.387-172.374-238.933zM291.84 293.547l-151.893-209.92-71.68 52.906 151.893 209.92 71.68-52.907zM322.553 302.566l-102.285 74.084 25.029 34.555 102.285-74.084-25.029-34.555zM387.413 421.547l-75.094 54.613c-1.707 1.707-3.413 1.707-5.12 1.707-6.827 0-17.067-5.12-17.067-5.12l-23.894-34.134-15.36-22.186 102.4-73.387 15.36 22.187 23.894 34.133c0 0 1.707 18.774-5.12 22.186zM353.28 375.467l-5.12-6.827-73.387 52.906 5.12 6.827 20.48 29.013c1.707 0 3.413 1.707 3.413 1.707l68.267-49.493c0-1.707 0-3.413 0-5.12l-18.774-29.013zM0-34.133l139.946 85.334-102.4 73.387-37.547-158.72zM107.52 52.907l-47.786-29.014-23.893 17.067 13.654 54.613 58.027-42.666z" horiz-adv-x="393" />
<glyph unicode="&#xe611;" d="M389.12 153.6l-11.947-11.947-37.546 37.546c23.894 30.72 37.546 69.974 37.546 112.64 0 104.106-85.334 186.026-186.026 186.026s-184.32-85.334-184.32-186.026 85.334-186.026 186.026-186.026c42.666 0 81.92 13.654 112.64 37.546l37.546-37.546-11.947-11.947 133.12-129.707 58.027 61.44-133.12 128zM59.733 291.84c0 73.387 59.733 133.12 133.12 133.12s131.413-59.733 131.413-133.12-59.733-131.413-133.12-131.413c-71.68-3.413-131.413 56.32-131.413 131.413z" horiz-adv-x="529" />
<glyph unicode="&#xe612;" d="M250.703-4.119v0l206.566 206.565-21.186 19.421-192.441-190.676v437.849h-28.249v-437.849l-192.441 190.676-21.186-19.421 227.751-227.752z" horiz-adv-x="459" />
<glyph unicode="&#xe613;" d="M215.772 455.924v0l-213.943-213.943 21.943-20.115 199.315 197.486v-453.486h29.257v453.486l199.315-197.486 21.943 20.114-235.886 235.886z" horiz-adv-x="476" />
<glyph unicode="&#xe614;" d="M527.754 245.498v0l-230.4 230.4-21.661-23.631 212.677-214.646h-488.369v-31.507h488.369l-212.677-214.646 21.661-23.631 254.031 254.031z" horiz-adv-x="552" />
<glyph unicode="&#xe615;" d="M23.631 198.236v0l230.4-230.4 21.661 23.631-212.677 214.646h488.369v31.507h-488.369l212.677 214.646-21.661 23.631-254.031-254.031z" horiz-adv-x="552" />
<glyph unicode="&#xe616;" d="M512 179.2v85.334h-46.080c-40.96 0-59.733 46.080-30.72 75.094l32.426 32.426-59.733 59.734-32.426-32.427c-29.014-29.014-75.094-6.827-75.094 30.72v47.786h-85.334v-46.080c0-35.84-49.493-58.027-75.094-30.72l-34.133 32.426-61.44-59.733 32.427-32.426c29.013-29.013 8.534-75.094-30.72-75.094h-46.080v-85.334h46.080c42.666 0 64.853-42.666 30.72-75.094l-32.426-32.426 59.733-59.733 32.426 32.426c27.306 27.306 75.094 8.534 75.094-30.72v-49.494h85.334v46.080c0 40.96 44.373 63.147 75.094 30.72l32.426-32.426 59.733 59.733-32.426 32.426c-29.014 29.014-13.654 75.094 30.72 75.094h49.494v1.707zM256 121.173c-56.32 0-100.694 46.080-100.694 100.693 0 56.32 46.080 102.4 100.694 102.4 56.32 0 100.693-46.080 100.693-102.4 1.707-56.32-44.373-100.693-100.694-100.693z" />
<glyph unicode="&#xe617;" d="M213.943 263.924v213.943h-213.943v-213.943h213.943zM512 263.924v213.943h-213.943v-213.943h213.943zM213.943-34.133v213.943h-213.943v-213.943h213.943zM512-34.133v213.943h-213.943v-213.943h213.943z" />
<glyph unicode="&#xe618;" d="M365.714 258.438v-256c0-20.115 16.457-36.572 36.572-36.572h73.143c20.115 0 36.572 16.457 36.572 36.572v256c0 20.115-16.457 36.572-36.572 36.572h-73.143c-20.115 0-36.572-16.457-36.572-36.572zM182.857 441.295v-438.857c0-20.115 16.457-36.571 36.571-36.571h73.143c20.115 0 36.572 16.457 36.572 36.572v438.857c0 20.114-16.457 36.572-36.572 36.572h-73.143c-20.114 0-36.571-16.457-36.571-36.572zM0 148.724v-146.286c0-20.115 16.457-36.572 36.572-36.572h73.143c20.115 0 36.572 16.457 36.572 36.572v146.286c0 20.115-16.457 36.572-36.572 36.572h-73.143c-20.114 0-36.572-16.457-36.572-36.572z" />
<glyph unicode="&#xe619;" d="M343.772 280.381h-25.6c0 23.772 0 64 0 64 0 73.143-62.172 133.486-135.315 133.486s-126.171-62.172-135.315-135.315c0 0 0-31.085 0-62.171h-25.6c-9.143 0-20.114-7.315-20.114-16.457v-281.6c0-9.143 9.143-16.457 20.114-16.457h321.829c9.143 0 20.115 7.315 20.115 16.457v281.6c0 9.143-10.971 16.457-20.115 16.457zM95.085 344.381c0 47.543 40.228 91.428 87.772 91.428s87.772-45.714 87.772-91.428c0 0 0-40.228 0-64h-175.543c0 31.086 0 64 0 64z" horiz-adv-x="366" />
<glyph unicode="&#xe61a;" d="M53.76-26.453c-30.72 0-53.76 23.040-53.76 51.2v394.24c0 28.16 23.040 51.2 53.76 51.2h660.48c30.72 0 53.76-23.040 53.76-51.2v-391.68c0-28.16-23.040-51.2-53.76-51.2h-660.48zM140.8 183.467c5.12-2.56 5.12-10.24 7.68-17.92 5.12-25.6 0-56.32-5.12-81.92v-5.12c-2.56-10.24-2.56-23.040 5.12-33.28 5.12-5.12 10.24-10.24 20.48-10.24 2.56 0 2.56 0 5.12 0 35.84 0 46.080 38.4 53.76 61.44 2.56 7.68 2.56 12.8 5.12 17.92 2.56-7.68 0-15.36 0-23.040s-2.56-17.92 0-25.6c0-2.56 2.56-7.68 10.24-7.68 5.12 0 12.8 2.56 15.36 5.12 5.12 2.56 10.24 7.68 15.36 10.24 5.12-7.68 12.8-15.36 23.040-15.36 2.56 0 5.12 0 7.68 0 17.92 0 33.28 10.24 46.080 20.48l2.56 2.56c2.56 2.56 2.56 2.56 5.12 2.56 5.12 0 10.24-5.12 15.36-7.68 2.56-2.56 5.12-5.12 10.24-5.12 12.8-7.68 23.040-10.24 35.84-10.24 2.56 0 2.56 0 5.12 0 23.040 0 46.080 5.12 69.12 17.92l5.12 2.56v5.12c0 5.12-5.12 5.12-15.36 5.12-5.12 0-10.24 0-12.8-2.56-12.8-7.68-25.6-10.24-38.4-10.24v0c-5.12 0-12.8 0-17.92 2.56s-12.8 5.12-17.92 10.24c-2.56 2.56-5.12 2.56-7.68 5.12-7.68 5.12-17.92 7.68-28.16 7.68 0 0-2.56 0-2.56 0-12.8 0-23.040-5.12-35.84-15.36-2.56 0-2.56-2.56-5.12-2.56-2.56-2.56-7.68-7.68-10.24-7.68 0 0-2.56 0-2.56 2.56-7.68 5.12-10.24 15.36-7.68 20.48 0 2.56 0 5.12 0 7.68-2.56 5.12-7.68 5.12-10.24 5.12-5.12 0-15.36-2.56-17.92-5.12s-2.56-2.56-5.12-5.12c0 7.68 0 17.92-2.56 25.6-2.56 10.24-12.8 15.36-25.6 15.36-5.12 0-12.8 0-17.92-2.56-12.8-5.12-17.92-23.040-20.48-35.84 0-2.56 0-5.12-2.56-5.12-2.56-12.8-12.8-33.28-17.92-40.96 0 0 0 2.56-2.56 5.12-2.56 7.68 0 23.040 2.56 40.96 5.12 33.28 10.24 71.68-5.12 92.16-5.12 7.68-15.36 10.24-25.6 10.24-2.56 0-2.56 0-5.12 0-23.040-2.56-35.84-17.92-46.080-35.84-10.24-28.16-17.92-53.76-25.6-76.8-2.56-10.24-5.12-17.92-7.68-28.16v-2.56l2.56-2.56c0 0 2.56-5.12 12.8-5.12 5.12 0 15.36 0 17.92 7.68 2.56 10.24 5.12 17.92 7.68 28.16 5.12 20.48 12.8 38.4 20.48 58.88 2.56 7.68 7.68 15.36 12.8 23.040v0c2.56 2.56 2.56 5.12 5.12 7.68zM17.92 293.547h732.16v76.8h-732.16v-76.8z" horiz-adv-x="768" />
<glyph unicode="&#xe61b;" d="M0 475.172v-59.284l374.568-266.779 2.695-2.695 374.569 266.779 2.694 2.695v59.284zM388.042 105.993c-5.389-5.389-13.474-5.389-21.558 0l-83.537 59.284-253.305-196.716h695.242l-253.305 196.716-83.537-59.284zM0 370.077v-374.568l250.611 194.021zM503.916 189.53l250.61-194.021v371.873l-245.221-175.158z" horiz-adv-x="755" />
<glyph unicode="&#xe61c;" d="M30.72 262.827l34.133-23.894c3.413 5.12 10.24 10.24 17.067 13.654 20.48 8.534 44.373 0 52.907-20.48l37.547 17.066c-3.413 6.827-3.413 13.654-3.413 20.48 3.413 22.186 22.186 37.546 44.374 35.84l5.12 40.96c-6.827 0-13.654 3.413-18.774 6.827-17.066 13.654-22.186 39.254-8.534 56.32l-34.133 22.186c-3.413-5.12-8.534-10.24-15.36-11.947-20.48-10.24-44.374 0-52.906 20.48l-37.547-17.067c1.706-5.12 3.413-13.653 1.706-20.48-1.706-22.187-22.186-37.547-44.373-34.134l-5.12-42.666c6.827 0 13.654-1.707 20.48-6.827 17.066-13.654 20.48-39.253 6.826-56.32zM68.266 339.627c3.413 23.894 23.894 40.96 47.787 37.547 23.893-1.707 40.96-23.894 37.547-47.787-3.413-22.186-23.893-39.253-47.786-37.546-22.186 3.413-39.254 23.893-37.547 47.786zM249.173 172.373l-37.547 30.72c-5.12-6.827-11.946-11.947-20.48-15.36-23.893-10.24-51.2 1.707-61.44 27.307l-44.374-17.067c3.413-6.827 3.413-15.36 3.413-23.894-3.413-25.6-27.306-44.373-54.614-39.254l-6.826-49.493c8.534-1.707 15.36-5.12 22.186-10.24 20.48-15.36 23.894-46.080 6.827-66.56l37.547-30.72c5.12 6.827 11.947 11.947 20.48 15.36v0c23.893 10.24 51.2-1.707 61.44-27.307l46.080 18.774c-3.413 6.827-3.413 15.36-3.413 23.894 3.413 25.6 29.013 42.666 54.613 39.254l6.827 47.786c-8.534 1.707-15.36 5.12-22.187 10.24-20.48 17.067-23.893 46.080-8.534 66.56zM203.094 83.627c-3.413-27.307-29.013-46.080-58.026-42.666-27.306 3.413-46.080 29.014-42.666 58.026 3.413 27.307 29.014 46.080 58.027 42.666 27.306-5.12 46.080-30.72 42.666-58.026zM544.427 278.187l49.494 20.48-17.067 68.267-52.907-3.413c-3.413 5.12-8.534 11.947-11.947 17.067l20.48 49.493-59.733 35.84-35.84-40.96c-6.827 1.707-13.654 3.413-20.48 3.413l-20.48 49.494-68.267-17.067 3.413-52.907c-5.12-3.413-11.947-6.826-17.067-11.946l-49.493 20.48-35.84-59.733 40.96-35.84c-1.707-6.827-3.413-13.654-3.413-20.48l-49.493-20.48 17.066-68.267 54.614 3.413c3.413-5.12 6.827-11.947 11.947-17.067l-20.48-49.493 59.733-35.84 35.84 40.96c6.827-1.707 13.654-3.413 20.48-3.413l20.48-49.493 68.267 17.067-6.827 54.613c5.12 3.413 11.947 6.827 17.067 11.947l49.493-20.48 35.84 59.733-40.96 35.84c3.413 5.12 3.413 11.946 5.12 18.773zM416.426 245.76c-25.6-6.827-49.493 8.534-56.32 34.133s8.534 49.493 34.134 56.32c25.6 6.827 49.493-8.534 56.32-34.134 5.12-25.6-10.24-51.2-34.133-56.32z" horiz-adv-x="598" />
<glyph unicode="&#xe61d;" d="M201.143 110.324c0 78.629 78.629 140.8 175.543 140.8 38.4 0 74.971-10.971 102.4-27.428 10.971 20.114 16.457 42.057 16.457 65.829 0 104.228-109.714 186.514-243.2 186.514-135.315 1.829-245.029-82.286-245.029-184.685 0-60.343 36.572-113.372 93.257-148.114l-36.572-93.257 96.915 65.829c12.8-3.657 25.6-7.315 38.4-9.143 1.828 1.829 1.828 1.829 1.828 3.657zM522.971 110.324c0 62.171-65.829 113.371-146.286 113.371s-146.286-51.2-146.286-113.371c0-62.171 65.829-113.371 146.286-113.371 18.286 0 36.572 1.829 53.029 7.315l58.514-40.228-21.943 54.857c34.743 23.772 56.685 54.857 56.685 91.428z" horiz-adv-x="531" />
<glyph unicode="&#xe61e;" d="M233.814 332.8h-25.6v-59.733c1.707 0 8.534 0 22.186 0 6.827 0 11.946 0 17.066 1.707s8.534 3.413 11.947 5.12c3.413 1.707 5.12 5.12 6.827 6.827 1.707 3.413 3.413 5.12 3.413 8.534s0 5.12 0 8.534c0 8.534-3.413 17.066-8.534 20.48-6.827 6.827-15.36 8.534-27.306 8.534zM187.733 477.867c-102.4 0-184.32-80.214-184.32-179.2 0-134.827 184.32-332.8 184.32-332.8s184.32 197.974 184.32 332.8c0 98.987-81.92 179.2-184.32 179.2zM145.066 186.027h-32.427v170.666h30.72v-170.666zM296.96 285.013c-1.707-6.827-5.12-11.947-10.24-17.066s-11.947-8.534-20.48-11.947c-8.534-3.413-18.774-3.413-30.72-3.413-10.24 0-18.773 0-25.6 1.707v-64.853h-30.72v170.666h56.32c13.654 0 25.6-1.707 34.133-5.12 10.24-3.413 17.067-8.534 22.187-17.066s8.534-17.066 8.534-29.013c-1.707-11.947-1.707-18.774-3.413-23.894z" horiz-adv-x="376" />
<glyph unicode="&#xe61f;" d="M46.080 334.507c0 0 0 0 0 0s0 0 0 0c1.706 0 1.706 0 3.413 0 0 0 0 0 0 0s1.706 0 1.706 0c0 0 0 0 0 0 1.706 0 3.413 0 5.12 0 0 0 0 0 0 0 1.706 0 5.12 0 6.827 0 0 0 0 0 0 0 3.414 0 5.12 0 8.533 1.707 0 0 0 0 0 0 3.413 0 5.12 1.707 8.534 1.707 0 0 0 0 0 0 5.12 0 8.534 0 10.24 3.413 0 0 0 0 0 0 1.707 0 3.413 1.707 5.12 1.707 0 0 0 0 0 0 1.707 1.707 3.413 1.707 3.413 3.413v0c5.12 6.827 10.24 15.36 13.653 29.014v0c0 0 52.907 102.4 247.466 100.693v-8.534c0 0-160.427-18.774-133.12-98.986l13.654-20.48 336.214-337.92-46.080-44.373-337.92 337.92-18.774 11.947c-11.947-3.413-22.186-8.534-27.306-15.36v0c-1.707-1.707-3.413-1.707-3.413-3.413 0 0 0 0 0 0-1.707-1.707-1.707-3.413-3.413-3.413 0 0 0 0 0 0-1.707-1.707-3.413-3.413-3.413-5.12 0 0 0 0 0 0 0-1.707-1.707-3.413-1.707-3.413s0 0 0 0c-1.707-3.413-1.707-5.12-3.413-8.534 0 0 0 0 0 0 0-3.413-1.707-5.12-1.707-8.534 0 0 0 0 0 0 0-3.413 0-5.12 0-6.827 0 0 0 0 0 0 0-1.707 0-3.413 0-5.12 0 0 0 0 0 0s0-1.707 0-1.707c0 0 0 0 0 0s0-1.707 0-1.707v0c0 0 0 0 0-1.707 0 0 0 0 0 0s0 0 0 0l-42.666-42.666-85.334 85.334 44.373 40.96z" horiz-adv-x="581" />
<glyph unicode="&#xe620;" d="M647.314 86.552v330.971c0 32.914-25.6 60.343-58.514 60.343h-464.457c-31.085 0-58.514-27.429-58.514-60.343v-330.971c0-32.914 25.6-60.343 58.514-60.343h-115.2c0-32.914 25.6-60.343 58.514-60.343h579.657c32.914 0 58.514 27.428 58.514 60.343h-115.2c29.257 0 56.686 27.428 56.686 60.343zM124.343 417.524h464.457v-330.971h-464.457v330.971zM356.572-4.876c-16.457 0-29.257 12.8-29.257 29.257s12.8 29.257 29.257 29.257c16.457 0 29.257-12.8 29.257-29.257s-12.8-29.257-29.257-29.257z" horiz-adv-x="713" />
<glyph unicode="&#xe621;" d="M256 421.181v56.685h-199.315c-31.085 0-56.685-25.6-56.685-56.685v-398.628c0-31.086 25.6-56.686 56.685-56.686h398.628c31.086 0 56.685 25.6 56.685 56.686v199.315h-56.685v-199.315h-398.628v398.628h199.315zM312.685 421.181h102.4l-279.772-279.772 40.228-40.228 279.772 279.772v-102.4h56.685v199.314h-199.315z" />
<glyph unicode="&#xe622;" d="M107.52-34.133h-78.507c-15.36 0-29.014 11.947-29.014 29.014v283.307c0 15.36 11.947 29.014 29.014 29.014h76.8c15.36 0 29.014-11.947 29.014-29.014v-283.307c0-17.067-11.947-29.014-27.306-29.014zM107.52 344.747h-78.507c-15.36 0-29.014 11.947-29.014 29.014v75.093c1.706 17.067 13.653 29.014 29.014 29.014h76.8c15.36 0 29.014-11.947 29.014-29.014v-76.8c0-15.36-11.947-27.307-27.306-27.307z" horiz-adv-x="137" />
<glyph unicode="&#xe629;" d="M209.92-34.133v122.88h15.36c13.654 0 25.6 11.947 25.6 25.6v128c0 27.307-22.186 52.906-49.494 52.906h-146.774c-27.306 0-49.493-25.6-49.493-52.906v-128c0-13.654 11.947-25.6 25.6-25.6h15.36v-122.88h163.84zM46.080 395.947c0 46.080 35.84 81.92 81.92 81.92s81.92-35.84 81.92-81.92c0-46.080-35.84-81.92-81.92-81.92s-81.92 35.84-81.92 81.92z" horiz-adv-x="256" />
<glyph unicode="&#xe62a;" d="M491.885 229.181l-98.743 100.572v148.114h-71.315v-76.8l-74.971 76.8-245.029-248.685h69.486v-263.315h118.857v182.857h113.371v-182.857h118.857v263.315z" horiz-adv-x="494" />
<glyph unicode="&#xe62b;" d="M166.4 423.010v54.857h-166.4v-512h146.286v69.486h166.4v-69.486h144.457v457.143h-290.743zM416.914 86.552h-376.685v38.4h376.685v-38.4zM416.914 163.352h-376.685v38.4h376.685v-38.4zM416.914 240.152h-376.685v36.572h376.685v-36.572zM416.914 315.124h-376.685v38.4h376.685v-38.4z" horiz-adv-x="457" />
<glyph unicode="&#xe62c;" d="M296.228 221.867l188.343 195.657c12.8 14.629 12.8 36.572-1.829 49.372s-36.572 12.8-49.372-1.829l-186.514-192-186.514 193.828c-12.8 14.628-36.572 14.628-49.371 1.829-14.629-12.8-14.629-36.572-1.829-49.372l188.343-197.486-188.343-195.657c-12.8-14.628-12.8-36.572 1.829-49.371 7.315-7.315 14.629-10.971 23.772-10.971s18.285 3.657 25.6 10.971l186.514 193.828 186.514-193.828c7.315-7.315 16.457-10.971 25.6-10.971s18.286 3.657 23.772 9.143c14.628 12.8 14.628 36.572 1.829 49.371l-188.343 197.486z" horiz-adv-x="494" />
<glyph unicode="&#xe62d;" d="M647.68 470.187c-17.92 12.8-40.96 7.68-53.76-10.24l-261.12-386.56-261.12 386.56c-10.24 17.92-35.84 23.040-53.76 10.24-17.92-10.24-23.040-35.84-10.24-53.76l291.84-435.2c0 0 0 0 2.56 0 2.56-2.56 5.12-7.68 10.24-10.24 0 0 0 0 2.56 0 5.12-2.56 12.8-5.12 20.48-5.12s12.8 2.56 20.48 5.12c0 0 2.56 0 2.56 0 2.56 2.56 7.68 5.12 10.24 10.24 0 0 0 0 2.56 0l291.84 435.2c7.68 17.92 2.56 43.52-15.36 53.76z" horiz-adv-x="666" />
<glyph unicode="&#xe62e;" d="M5.907 464.082c-9.846-13.785-5.907-33.477 7.877-41.354l295.385-200.861-295.385-200.861c-13.784-9.846-17.723-27.569-7.877-41.354s27.569-17.723 41.354-7.877l334.769 224.493c0 0 0 0 0 1.969 1.969 1.969 5.908 3.938 7.877 7.877 0 0 0 0 0 1.969 1.969 3.938 3.938 9.846 3.938 15.754s-1.969 9.846-3.938 15.754c0 0 0 1.969 0 1.969-1.969 1.969-3.938 5.907-7.877 7.877 0 0 0 0 0 1.969l-334.769 220.554c-13.785 9.846-33.477 5.908-41.354-7.877z" horiz-adv-x="394" />
</font>
</defs>
</svg>
