<svg height="208" viewBox="0 0 70 208" width="70" xmlns="http://www.w3.org/2000/svg" xmlns:xlink="http://www.w3.org/1999/xlink"><defs><path id="a" d="m53.6887549 92.5973658c-6.1615841.700349-11.1657487 3.4872718-15.2720756 7.9949592-4.7233735 5.185058-5.6397648 11.242798-4.3934697 17.966084 1.0172026 5.487429 2.3110131 10.912534 3.3497643 16.396175 3.9012904 20.595266-7.2659555 36.522076-22.366392 42.631575-3.2125762 1.299776-9.9603271 3.302556-10.11870728 1.979965-.14178635-1.184035-.7116976-2.662915 1.25074546-3.191209 3.61860343-.974149 5.07457922-2.347649 8.29144042-4.321521 7.6013696-4.664238 9.28261-12.986048 8.1511004-21.780758-.855495-6.649358-2.5652167-13.109846-3.6339045-19.70913-2.219638-13.706532 2.9291199-24.285203 13.1739009-32.8833651 4.0080285-3.3638279 8.6547318-5.6834945 13.665403-7.7547347-.8291758-.8579249-1.8271945-1.124802-2.7291522-1.5160282-7.5686049-3.2828958-14.1173538-7.8329812-18.8798628-14.7339336-5.0436786-7.3083797-6.5864027-15.2817158-5.2868828-24.0169456 1.0451141-7.0251339 2.9050784-13.8820253 3.8724302-20.9262776 1.1427292-8.3213631-1.3944523-17.1585923-9.4786041-21.52832264-2.7520118-1.48754507-3.66552788-2.55982174-6.65651324-3.44819901-1.63807684-.48653896-2.41813421-2.18393167-1.7540737-3.67305489.42193602-.94617167 18.29681104 6.36039459 25.36474254 15.32943404 6.8355494 8.6741521 8.860285 18.4315586 7.1853379 29.2455275-1.0029659 6.4754475-2.8064443 12.7723677-3.6952396 19.2785021-1.0283591 7.5277984 1.7990916 13.2160179 7.258357 17.9298486 3.544314 3.0603678 7.7868482 4.6793882 12.5375956 5.4880496.1640598 1.7100416.1640598 3.3805679.1640598 5.2433593z"/><filter id="b" height="117.8%" width="165.2%" x="-28.5%" y="-7.8%"><feOffset dx="2" dy="2" in="SourceAlpha" result="shadowOffsetOuter1"/><feGaussianBlur in="shadowOffsetOuter1" result="shadowBlurOuter1" stdDeviation="5"/><feColorMatrix in="shadowBlurOuter1" type="matrix" values="0 0 0 0 0   0 0 0 0 0   0 0 0 0 0  0 0 0 0.602819056 0"/></filter></defs><g fill="none" transform="translate(.362793 2)"><g opacity=".6"><use fill="#000" filter="url(#b)" xlink:href="#a"/><use fill="#d1d1d1" xlink:href="#a"/></g><path d="m7.9296875 200.768164c.41536458-.02832.62304688-.084961.62304688-.169922l.05664062.056641.6796875-.283203c.8968099-.528646 1.4868164-1.000651 1.7700195-1.416016v-.169922l-.1132812-.113281-.2265625.056641c-.89680991.755208-1.54345705 1.132812-1.93994142 1.132812h-.05664063v-.056641c.15104167 0 .26432292-.07552.33984375-.226562h-.33984375c-.14160156.113281-.27376302.169922-.39648437.169922h-.39648438l-.33984375-.339844c0-.113281-.05664063-.169922-.16992187-.169922l.11328124-.113281-.05664062-.169922c0-.254883.50976562-1.349935 1.52929688-3.285156 0-.188802.03776041-.283203.11328124-.283203l.05664063.226562h.05664063l.05664062-.05664-.05664062-.566407.05664062-.226562c0-.236003-.35872396-.387044-1.07617188-.453125-.54752604.01888-1.34049479.547526-2.37890624 1.585937v.056641c.13216145 0 .26432291-.075521.39648437-.226563h.05664063l-1.75585938 1.585938.453125-.736328h.05664062l.05664063.05664.50976563-.453125v-.05664h-.16992188l-.05664062.05664-.16992188.226563h-.05664062v-.056641c.56640624-.774088.84960937-1.283854.84960937-1.529297h.05664063l.05664062.226563h-.05664062v.056641l.05664062.05664.33984375-.339844v-.05664c0-.075521-.05664063-.113281-.16992187-.113281v-.056641l.11328124-.169922v-.226562l-.2265625-.226563h-.11328124l-.16992188.113281-.16992188-.169922h-.11328124c-.07552084 0-.39648438.396485-.96289063 1.189454v.05664h.05664063l.16992187-.113281h.05664063v.056641c-.6702474.632487-1.68977865 1.500976-3.05859376 2.605468 0-.113281-.03776041-.169922-.11328124-.169922-.15104167.075521-.2265625.169922-.2265625.283204-.91569011.519205-1.38769532.821289-1.41601563.90625v.113281c0 .075521.09440104.113281.28320313.113281v.056641c-.17936198 0-.31152344.113281-.39648438.339843 0 .075521.32568359.018881.97705078-.169921l2.56298828-1.826661.66552735-.792968-.04248047.184082-.58056641.821289.05664063.05664-.12744141.084961v.056641l.05664063.056641-.05664063.169921-.05664063-.05664-.11328124.113281v.056641l.05664062.05664h-.05664062v.113282h-.05664063l-.05664063-.056641h-.05664062c-.2360026.424805-.59472656.859049-1.07617188 1.302734v.113282c0 .113281.07552084.169921.2265625.169921l-.2265625.339844.11328126.113281.11328124-.113281h.05664063l.05664063.056641-.11328126.226562.16992188.169922h.11328125c.09440104-.01888.18880208-.151041.28320313-.396484l.16992187.05664c.15104167 0 .2265625-.05664.2265625-.169921v-.056641l-.05664063-.056641h.05664063l-.05664063-.169922c.16992188-.434244.75520834-1.170572 1.75585938-2.208984 1.61425781-1.434896 2.7093099-2.152344 3.28515625-2.152344h.05664063c-.04720053.188802-.10384115.283203-.16992188.283203-.05664062.377605-.13216146.566407-.2265625.566407-.06608073.264323-.12272135.396484-.16992188.396484l-.90625 2.039063.05664063.169921c-.04720052.264323-.10384115.396485-.16992188.396485l.05664063.339844c0 .585286.37760417.96289 1.1328125 1.132812zm4.7578125-.184082.8496094-.113281.1699219.05664h.0566406l.0566406-.05664.3398438.05664.1132812-.113281v-.05664l-.0566406-.056641.1699219-.056641h.1699218v.056641h-.1132812v.113281h.2832031l.0566406-.05664-.0566406-.056641c0-.056641.0755208-.113281.2265625-.169922l.0566406.056641v.05664l-.0566406.056641v.056641h.2265625l.0566406-.056641-.0566406-.056641.1132813-.113281h.2265625v.056641l-.0566407.05664v.056641h.1132813c0-.151042.0377604-.226563.1132812-.226563h.2265625v.056641h-.1132812v.113281h.2265625v-.05664c0-.122722.2832031-.217123.8496094-.283203h.0566406l-.0566406.05664v.056641l.0566406.05664h.0566406l.0566406-.05664-.0566406-.056641c0-.075521.273763-.250163.8212891-.523926l-.0566407.056641v.056641l.0566407.05664h.0566406l.0566406-.05664v-.056641l-.0566406-.056641.5097656-.113281-.0566406.056641.1132812.113281h.0566407c0-.151042.0377604-.226562.1132812-.226562h.0566406l-.0566406.05664v.056641l.0566406.05664c.2265625 0 .3398438-.07552.3398438-.226562.1888021 0 .3398437-.094401.453125-.283203l-.1699219-.169922c-2.6526693.764648-4.7200521 1.146973-6.2021484 1.146973h-.1132813v-.056641l.0566407-.056641v-.113281h-.1132813v.169922h-.2265625v-.056641l.0566406-.05664-.1699218-.169922h-.0566407l-.0566406.05664c-.0188802-.103841-.1699219-.179362-.453125-.226562-.1132812-.151042-.2265625-.226563-.3398437-.226563l-.1132813-.339843.0566406-.283203-.0566406-.056641c3.5494792-1.538737 5.7395833-2.765951 6.5703125-3.681641l.1132813-.509765h.0566406c.0755208 0 .1132812.07552.1132812.226562l.1699219-.169922v-.05664l-.1699219-.169922.1699219-.226563c0-.302083-.2076823-.453125-.6230469-.453125h-.0566406l-.0566406.056641-.1699219-.113281-1.2460937.396484c-.8307292.320964-1.4348959.623047-1.8125.90625v.056641h.1132812c.2360026-.188802.4248047-.283203.5664063-.283203h.0566406v.05664c-1.3216146.566406-2.5488281 1.491537-3.6816406 2.775391h-.0566407c.2454427-.377604.4153646-.566406.5097657-.566406v-.169922l-.453125.396484c-.3492839.566406-.5947266.849609-.7363282.849609v.169922h.1132813v.056641l-.6372071.608887v-.113282l.1699219-.05664v-.056641l-.0566406-.05664-.2407227-.127442-.2407226.283203c-.04720054.85905.2265625 1.090332.821289.693848v.283203c-.0660807.396484.4295248.741048 1.4868165 1.033691l.2265625-.05664zm-.5097656-3.001953v-.056641c1.274414-1.416015 2.898112-2.378906 4.8710937-2.888672l-.3964843.396485v.05664h.1699218c0-.084961.1321615-.217122.3964844-.396484h.0566406c-.4342448.594727-2.1334635 1.557617-5.0976562 2.888672zm11.8803711 4.290527c.5097656 0 1.2272135-.490885 2.1523437-1.472656.811849-.434245 1.2460938-.736328 1.3027344-.90625.1888021 0 .2832031-.075521.2832031-.226562h.0566406l.0566407.169921h-.0566407v.113282l-.0566406-.056641h-.0566406l-.0566406.056641c.1416015.566406.2926432.849609.453125.849609 0 .320964.5286458.641927 1.5859375.962891l.1699218-.056641v.056641l.0566407.05664.5664062-.05664h.5664063l.1132812-.113282.0566406.056641c.4248047 0 .8401693-.075521 1.2460938-.226562 2.898112-1.123373 4.347168-1.72282 4.347168-1.79834v-.056641l-.0566407-.056641c.1132813 0 .1888021-.07552.2265625-.226562l-.1132812-.226563h-.1132813c-2.3567708.93099-4.055765 1.540949-5.0969827 1.829876l-.0438962.012183.0007422-.157h-.0566406l-.1132813.113281v.056641l.1201797.000078-.0583531.015749c-.3414041.089889-.6022304.140451-.7824792.151687l-.0723161.002408-.2832031-.056641-.0566407.056641-.453125-.056641.1132813-.113281-.1132813-.169922c-.1510416 0-.2265625.056641-.2265625.169922h-.1132812v-.056641l.0566406-.05664v-.113282l-.3398437-.169921h-.0566407l-.0566406.05664c0-.113281-.0755208-.207682-.2265625-.283203h-.1132812v.113281h-.1132813l.1132813-.169922v-.05664l-.3964844-.679688.1132812-.226562c0-.075521-.0566406-.113281-.1699218-.113281v-.056641c0-.169922.1888021-.453125.5664062-.849609 1.4160156-1.397136 2.5488281-2.303386 3.3984375-2.71875l.453125.05664c.2265625 0 .3398438-.113281.3398438-.339844l.2832031.056641c.1888021-.02832.2832031-.084961.2832031-.169922v-.169922l-.1132812-.113281h-.0566407l.1132813-.339844c-.0472005-.169922-.1982422-.302083-.453125-.396484l-.1699219.056641-.3398437-.113282c-.8684896.339844-1.5859375.717448-2.1523438 1.132813l-.9628906.90625v.05664l.0566406.056641.2832031-.226562h.0566407l-.6230469.623046c.0849609-.490885.179362-.811849.2832031-.96289l-.2832031-.623047v-.056641h.0566406c.0188802.151042.0755209.226563.1699219.226563h.0566406c0-.490886-.3020833-.830729-.90625-1.019531l-.1699219.05664-.6230468-.113281h-.0566407l-.0566406.056641-.0566406-.056641h-.0566406v.113281c.1510416 0 .2265625.037761.2265625.113281h-.3398438c-1.4348958 0-3.7760416 1.151693-7.0234375 3.455079 0-.113282-.0377604-.169922-.1132812-.169922h-.0566407l-.2832031.339843c-.2265625 0-.3398437.056641-.3398437.169922l-.5664063.481446-1.0620117.311523.0991211.382324.6230469.254883-.275961.031293.0871589.050521c.2588162.150517.426083.235183.5018005.253998l.0268453.004032c.4908854-.462565.7740886-.693848.8496094-.693848.358724-.453125.6796875-.792969.9628906-1.019531.3492839-.302083 1.3971354-1.057292 3.1435547-2.265625 1.1516927-.396484 1.7275391-.641927 1.7275391-.736328l.0566406.05664c.2265625-.03776.3398437-.094401.3398437-.169921.3398438 0 .5097657-.037761.5097657-.113282l.0566406.056641.6796875-.056641h.5097656l.0566406.056641c.4908855.084961.7363282.273763.7363282.566406v.283203c0 .396485-.1321615.774089-.3964844 1.132813l.0566406.05664-.0566406.056641v.056641l.0566406.05664h-.1132812c0 .113282-.0566407.169922-.1699219.169922 0 .320964-.358724.86849-1.0761719 1.642578l-.5097656.339844c-1.1044922.254883-1.991862.594727-2.6621094 1.019531-.2171224.094401-.368164.302084-.453125.623047l.1132813.283203-.1132813.339844c.273763.368164.4625651.556966.5664063.566406zm15.1655273-1.288574c.6136068-.264323 1.1988932-.627767 1.7558594-1.090332v-.198242l-.0566406-.056641.453125-.580566v-.127442l-.1274414-.127441h-.0708008l-.2548828.198242h-.0708008c0-.217122-.0424805-.325683-.1274414-.325683h-.0566406l-.3823243.382324c-.2454427.377604-.5805664.590006-1.0053711.637207h-.1274414c0-.122722-.0613606-.184082-.184082-.184082l.0566406-.382324c.5664063-1.623698.9109701-2.435547 1.0336914-2.435547.0566407-.424805.1416016-.637207.2548828-.637207l.453125-.778809c0-.207682.0424805-.311523.1274414-.311523.1604818-.387045.4767253-.87793.9487305-1.472657l2.1806641-3.086914c0-.320963.363444-.575846 1.090332-.764648l.0708008.070801h.1274414l.1274414-.127442.184082.056641.5805664-.198242.0708008.0708h.0566406l.0708008-.0708.0566407.0708h.0708007l.1274414-.127441.2548829.056641.3823242-.127442.0708008.070801.3823242-.127441.2548828.05664.1274414-.127441.3823242.070801.5097656-.198243v.070801l.0708008.056641.3823242-.127442.2548829.070801.1274414-.127441.0708007.05664.2548829-.05664.3115234.05664.453125-.127441h.0708008l.0566406.070801.453125-.127442.3115234.056641.3964844-.127441.184082.0708.6372071-.127441.3964843.056641.6938477-.127442.5239258.070801.3823242-.127441v.05664l.184082-.05664.3256836.05664 1.0195313-.184082.0708008.056641h.0566406l.0708008-.056641h.0566406l.0708008.056641 1.2177734-.127442.0566406.070801.8354492-.070801.7080079.070801.7646484-.127441h.0708008l.0566406.05664h.0708008l.0566406-.05664 1.4868164.05664 1.0195313-.05664 1.4726562.05664.2548828-.05664c0 .122721.4908854.207682 1.4726563.254883v.127441l-.0566406.056641h.0566406l.0708008.0708h.0566406v-.127441l-.0566406-.070801h.1274414c.0755208 0 .1368815.108561.184082.325684l.1982422-.070801.2548828.127441v.070801c-.2171224.028321-.3256836.089681-.3256836.184082 0 .084961.1085612.127442.3256836.127442 0 .264323.0424805.396484.1274414.396484h.1982422c.4625651-.066081.6938477-.174642.6938477-.325684l.7080078.127442.1274414-.127442-.0566407-.325683.1840821-.056641.2548828.184082h.1982422l.1274414-.127441v-.127442c0-.094401-.1085612-.155761-.3256836-.184082v-.0708c.1321614 0 .1982422-.042481.1982422-.127442v-.05664c0-.245443-.1085612-.396485-.3256836-.453125l-.3823242.05664-.2548828-.127441-.6372071.127441-.1982422-.127441-.7080078.070801v.127441l-1.9116211-.198242-.3823242.070801-.3256836-.127442-1.6000976.056641-.453125-.056641-.0566407.056641v-.056641l-.1982422.056641h-.0566406l-.0708008-.056641-.1982421.056641-.0566407-.056641h-.0708008l-.184082.127442h-1.8549805l-.3256836-.070801v.070801l-.0708007.05664-3.5825196.141602-.3823242-.070801-.1274414.127441h-.5097656l-.3256836-.05664c0 .084961-.1085612.127441-.3256836.127441h-.3823242l-.3115235-.070801c0 .084961-.7080078.169922-2.1240234.254883l-.2548828-.05664-.1274414.127441h-.1274414l-.453125-.070801c0 .084961-.1699219.151042-.5097656.198242v-.0708l-.0566407-.056641c-.2171224.084961-.9440104.188802-2.180664.311523l-.1982422-.05664-.1840821.127441-.3256835-.070801c0 .066081-.084961.132162-.2548829.198243v-.070801l-1.2885742.198242v-.070801h-.1274414l-.1274414.127442-.2548828-.056641h-.0566406l-.0708008.056641v-.056641c1.6236979-2.397786 3.0349935-4.299967 4.2338867-5.706543.2548828-.122721.3823242-.420085.3823242-.89209.1888021 0 .3162435-.084961.3823243-.254883v-.0708l-.1840821-.184082h-.1982422c-.0849609 0-.1274414.127441-.1274414.382324h-.1274414v-.070801l.0566406-.056641v-.198242l-.1274414-.127441h-.184082l-.2548828.254883v.0708l.0566406.056641-.184082.254883v.198242h.1274414l-2.6904297 3.780762c-.6230469.764648-1.2885742 1.703939-1.996582 2.817871l-.1840821-.056641-.2548828.127442-.0708007-.070801h-.0566407l-.1982422.198242-.1982421-.070801-4.9277344.708008c0-.084961.0660807-.127441.1982422-.127441v-.198242h-.0708008c-.1038412 0-.1699219.08496-.1982422.254882h-.0566406l-.8354492-.382324-.2548829.070801-.3256836-.127442-.184082.184083v.198242l.0566406.05664-.2548828.254883v.070801c0 .084961.0660808.127441.1982422.127441.179362.302084.3492839.453125.5097656.453125l.8354493-.127441.0566406.056641c.4342448-.037761.6513672-.099122.6513672-.184082v-.070801l-.0708008-.056641.2548828-.070801h.0708008v.070801l-.1982422.056641.1274414.127441h.0708008l.0566406-.05664v.05664h.0708008c.0283203-.169922.1321614-.278483.3115234-.325683h.0708008v.0708h-.1274414v.127442h.2548828c0-.169922.0424805-.254883.1274414-.254883h.1982422v.056641l-.0708008.0708v.070801h.1274414v-.141601l2.2373047-.509766h.0708008l.0708008.070801c.7174479-.160482 1.0761719-.287923 1.0761719-.382325l.3256836.056641h.1274414l.0708007-.056641v.127442l-2.3081054 3.455078c-1.3971354 2.001302-2.7045899 3.625-3.9223633 4.871094 0-.169922-.0424805-.254883-.1274414-.254883l-.3256836.325684c-.6419271.311523-.9628906.523925-.9628906.637207v.127441c0 .084961.0849609.127441.2548828.127441v.056641c-.1321615 0-.2596029.108561-.3823242.325684v.198242h.1982421c0 .169922.3658041-.02124 1.0974122-.573487.731608-.552246 1.6071777-1.559977 2.6267089-3.023193 0 .311524-.0849609.481445-.2548828.509766l-.7080078 1.472656c0 .264323-.0613607.396484-.184082.396484l.0566406.184082-.2548828.637207.1274414.651368v.05664l-.1274414-.127441v-.311524h-.1274414v.438965c.2926432.472005.6136068.708008.9628906.708008z" fill="#fff"/></g></svg>