<?xml version="1.0" standalone="no"?>
<!DOCTYPE svg PUBLIC "-//W3C//DTD SVG 1.1//EN" "http://www.w3.org/Graphics/SVG/1.1/DTD/svg11.dtd" >
<svg xmlns="http://www.w3.org/2000/svg">
<metadata>Generated by IcoMoon</metadata>
<defs>
<font id="icomoon" horiz-adv-x="512">
<font-face units-per-em="512" ascent="480" descent="-32" />
<missing-glyph horiz-adv-x="512" />
<glyph unicode="&#x20;" d="" horiz-adv-x="256" />
<glyph unicode="&#xe600;" d="M406.187 413.44c-37.546 44.373-92.16 66.56-162.133 66.56-71.68 0-129.707-23.894-172.374-69.974s-66.56-109.226-69.974-186.026c-3.413-78.507 15.36-141.654 54.614-187.733s95.574-68.267 167.254-68.267c18.774 0 35.84 1.707 54.613 6.827s35.84 10.24 47.786 18.774l5.12 3.413-13.654 52.906-8.534-3.413c-10.24-5.12-23.894-8.534-39.253-11.947s-30.72-5.12-44.374-5.12c-52.906 0-90.453 17.067-119.466 51.2-27.306 34.134-39.254 83.626-37.547 143.36 3.413 59.733 20.48 109.226 51.2 145.067s71.68 54.613 122.88 54.613c54.613 0 93.866-17.067 119.466-49.493 25.6-34.134 37.546-81.92 34.134-141.654-1.707-27.306-8.534-51.2-18.774-69.974-10.24-17.067-25.6-25.6-42.666-25.6-3.413 0-5.12 0-8.534 5.12-1.707 3.413-3.413 10.24-3.413 30.72l13.654 151.894 3.413 3.413-3.413 1.707v1.707h-3.413c-15.36 10.24-29.014 17.066-42.666 22.186s-30.72 6.827-52.906 6.827c-32.427 0-59.733-15.36-81.92-44.373-22.186-27.307-35.84-66.56-39.254-112.64-3.413-35.84 1.707-66.56 15.36-88.747 15.36-23.894 35.84-35.84 63.147-35.84 17.066 0 32.427 3.413 44.374 11.947 8.534 5.12 17.066 13.654 23.893 22.187 5.12-8.534 10.24-17.067 18.774-22.187 11.947-8.534 25.6-13.654 40.96-13.654 44.373 0 78.507 15.36 100.694 44.373s34.134 64.853 35.84 104.106c3.413 81.92-15.36 143.36-52.906 187.733zM254.293 176.214c0-1.707 0-1.707 0-3.413-5.12-10.24-11.947-17.067-18.774-20.48s-15.36-5.12-23.893-5.12c-8.534 0-13.654 3.413-17.066 13.654-5.12 10.24-6.827 25.6-5.12 47.786 3.413 32.427 10.24 58.026 18.774 75.094 8.534 15.36 22.186 22.186 39.254 22.186 3.413 0 8.533 0 11.946-1.707 1.707 0 3.413 0 5.12-1.707l-10.24-126.293z" horiz-adv-x="461" />
<glyph unicode="&#xe601;" d="M228.694 96c-23.893 20.48-51.2 49.493-78.506 93.866s-40.96 83.626-46.080 112.64l64.854 39.254-54.614 138.24-71.68-42.667c-63.147-37.546-51.2-170.666 25.6-296.96 75.094-124.587 186.026-196.267 249.174-163.84v0l73.387 44.373-100.694 112.64-61.44-37.546z" horiz-adv-x="393" />
<glyph unicode="&#xe602;" d="M280.717 480h-234.814c-22.951 0-38.842-3.531-38.842-24.717v-453.738c0-22.952 15.889-31.779 38.842-31.779h234.814c22.952 0 47.669 8.827 47.669 31.779v453.738c0 21.186-24.717 24.717-47.669 24.717zM164.193-3.752c-17.655 0-33.545 15.889-33.545 33.545s15.889 33.545 33.545 33.545c19.421 0 33.545-15.889 33.545-33.545 0-19.421-14.124-33.545-33.545-33.545zM289.545 102.18h-243.642v308.966h243.642v-308.966z" horiz-adv-x="336" />
<glyph unicode="&#xe603;" d="M196.267 480c-105.814 0-192.853-87.040-192.853-192.853 0-104.106 179.2-307.2 186.026-315.733 1.707-1.707 5.12-3.413 6.827-3.413 3.413 0 5.12 1.707 6.827 3.413 6.827 8.534 186.026 211.626 186.026 315.733 0 105.814-87.040 192.853-192.853 192.853zM196.267 229.12c-34.133 0-63.147 27.307-63.147 63.147s27.306 63.147 63.147 63.147 63.147-27.307 63.147-63.147-29.013-63.147-63.147-63.147z" horiz-adv-x="393" />
<glyph unicode="&#xe604;" d="M238.934 334.933h-25.6v-59.733c1.707 0 8.534 0 22.186 0 6.827 0 11.946 0 17.066 1.707s8.534 3.413 11.947 5.12c3.413 1.707 5.12 5.12 6.827 6.827 1.707 3.413 3.413 5.12 3.413 8.534s0 5.12 0 8.534c0 8.534-3.413 17.066-8.534 20.48-6.827 6.827-15.36 8.534-27.306 8.534zM196.267 480c-105.814 0-192.853-87.040-192.853-192.853 0-104.106 179.2-307.2 186.026-315.733 1.707-1.707 5.12-3.413 6.827-3.413 3.413 0 5.12 1.707 6.827 3.413 6.827 8.534 186.026 211.626 186.026 315.733 0 105.814-87.040 192.853-192.853 192.853zM150.186 188.16h-32.427v170.666h30.72v-170.666zM300.373 287.147c-1.707-6.827-5.12-11.947-10.24-17.066s-11.947-8.534-20.48-11.947c-8.534-3.413-18.774-3.413-30.72-3.413-10.24 0-18.773 0-25.6 1.707v-64.853h-30.72v170.666h56.32c13.654 0 25.6-1.707 34.133-5.12 10.24-3.413 17.067-8.534 22.187-17.066s8.534-17.066 8.534-29.013c0-11.947 0-18.774-3.413-23.894z" horiz-adv-x="393" />
<glyph unicode="&#xe605;" d="M206.506 254.72c39.254 18.773 66.56 59.733 66.56 105.814-1.707 66.56-54.613 119.466-119.466 119.466s-117.76-52.906-117.76-117.76c0-46.080 27.306-87.040 66.56-105.814-54.614-20.48-93.867-73.387-93.867-136.534v-116.053c42.666-22.187 92.16-35.84 145.067-35.84s102.4 13.654 146.774 35.84v116.053c0 61.44-39.254 114.346-93.867 134.827z" horiz-adv-x="307" />
<glyph unicode="&#xe606;" d="M5.296 224h105.931v-250.703h-105.931v250.703zM127.117 163.973v-187.145c0 0 324.855-19.42 346.041 0 19.421 17.655 14.124 47.669 14.124 47.669s33.545 21.186 33.545 40.607c0 19.421 1.765 42.373 1.765 42.373s21.186 37.076 17.655 52.966c-3.531 14.124-15.889 47.669-15.889 47.669s28.249 24.717 15.889 60.027c-95.338 38.841-176.552 0-211.862 8.828 24.717 35.31 98.869 203.035 8.827 203.035-70.62 0-47.669-141.242-125.351-178.317-84.745-42.373-84.745-137.711-84.745-137.711z" horiz-adv-x="548" />
<glyph unicode="&#xe607;" d="M5.296 472.938h105.931v-250.703h-105.931v250.703zM127.117 284.028v187.145c0 0 324.855 19.421 346.041 0 19.421-17.655 14.124-47.669 14.124-47.669s33.545-21.186 33.545-40.607 1.765-42.373 1.765-42.373 21.186-37.076 17.655-52.966c-3.531-14.124-15.889-47.669-15.889-47.669s28.249-24.717 15.889-60.028c-95.338-38.841-176.552 0-211.862-8.827 26.483-35.31 98.869-203.034 8.827-203.034-70.62 0-47.669 141.241-125.351 178.317-84.745 42.373-84.745 137.711-84.745 137.711z" horiz-adv-x="548" />
<glyph unicode="&#xe608;" d="M273.655 480l82.98-167.724 185.38-28.248-134.179-130.649 31.779-185.38-165.958 88.276-165.958-88.276 31.78 185.38-134.179 130.649 185.38 28.249z" horiz-adv-x="548" />
<glyph unicode="&#xe609;" d="M327.68 462.933c-10.24 5.12-35.84 17.067-52.906 17.067-25.6 0-35.84-15.36-39.254-23.894l-116.053-308.906-27.306 88.746c-3.413 10.24-13.653 27.306-42.666 27.306-30.72 0-40.96-18.774-42.666-27.306l-1.707-5.12c-3.413-17.066 15.36-80.213 27.306-116.054l44.373-122.88c5.12-11.947 17.067-23.893 47.787-23.893s42.667 13.654 46.080 23.894l177.494 416.426c3.413 5.12 3.413 11.947 3.413 18.774 1.707 8.534-3.413 23.893-23.894 35.84z" horiz-adv-x="359" />
<glyph unicode="&#xe60a;" d="M332.8 224l149.943 159.086c14.628 14.628 14.628 40.228-1.829 54.857l-32.914 32.914c-14.628 14.629-40.228 14.629-54.857-1.828l-146.286-153.6-146.286 153.6c-14.629 14.628-40.228 16.457-54.857 1.828l-32.914-32.914c-14.629-14.629-16.457-40.228-1.829-54.857l149.943-159.085-149.943-159.086c-14.629-14.628-14.629-40.228 1.829-54.857l32.914-32.914c14.629-14.629 40.228-14.629 54.857 1.829l146.286 153.6 146.286-153.6c14.628-14.629 40.228-16.457 54.857-1.829l32.914 32.914c14.628 14.628 16.457 40.228 1.829 54.857l-149.943 159.086z" horiz-adv-x="494" />
<glyph unicode="&#xe60b;" d="M107.52 480h-78.507c-15.36 0-27.306-11.947-27.306-29.014v-283.307c0-15.36 11.947-29.014 29.014-29.014h76.8c15.36 0 29.013 11.947 29.013 29.014v283.307c-1.707 17.067-13.653 29.014-29.013 29.014zM107.52 101.12h-78.507c-15.36 0-29.014-11.947-29.014-29.014v-76.8c0-15.36 11.947-29.013 29.014-29.013h76.8c15.36 0 29.014 11.947 29.014 29.014v76.8c0 17.067-11.947 29.014-27.306 29.014z" horiz-adv-x="137" />
<glyph unicode="&#xe60c;" d="M277.943-22.857l215.772 241.372c9.143 9.143 12.8 23.772 9.143 34.743-5.486 12.8-16.457 20.114-29.257 20.114h-111.543v173.715c0 18.285-14.628 32.914-32.914 32.914h-146.286c-18.286 0-32.915-14.629-32.915-32.914v-173.715h-109.715c-12.8 0-25.6-7.314-29.257-20.114-1.829-3.657-1.829-7.315-1.829-10.971 0-9.143 3.657-18.286 10.972-23.772l215.772-243.2c10.971-10.972 29.257-10.972 42.057 1.829z" />
<glyph unicode="&#xe60d;" d="M234.057 470.857l-215.772-241.371c-9.143-9.143-12.8-23.772-9.143-34.743 5.486-12.8 16.457-20.115 29.257-20.115h111.543v-173.714c0-18.286 14.629-32.914 32.915-32.914h146.286c18.286 0 32.914 14.628 32.914 32.914v173.714h111.543c12.8 0 25.6 7.315 29.257 20.115 1.829 3.657 1.829 7.315 1.829 10.971 0 9.143-3.657 18.286-10.971 23.772l-215.772 241.371c-12.8 12.8-31.085 12.8-43.886 0z" />
<glyph unicode="&#xe60e;" d="M519.314 245.943l-248.685 223.085c-9.143 10.971-23.772 12.8-36.572 9.143-12.8-5.486-21.943-16.457-21.943-31.086v-115.2h-177.371c-18.285 0-32.914-14.628-32.914-32.915v-148.114c0-18.286 14.629-32.914 32.914-32.914h179.2v-115.2c0-12.8 9.143-25.6 21.943-31.086 1.828-3.657 5.486-3.657 10.971-3.657 9.143 0 18.285 3.657 23.771 10.971l248.686 223.085c12.8 12.8 12.8 31.085 0 43.886z" horiz-adv-x="531" />
<glyph unicode="&#xe60f;" d="M10.972 202.057l248.685-223.086c9.143-10.971 23.772-12.8 36.572-9.143 12.8 5.486 21.943 16.457 21.943 31.086v115.2h179.2c18.285 0 32.914 14.628 32.914 32.914v149.943c0 18.285-14.629 32.914-32.914 32.914h-179.2v115.2c0 12.8-9.143 25.6-21.943 31.086-3.657 1.828-7.315 1.828-12.8 1.828-9.143 0-18.286-3.657-23.772-10.971l-248.685-223.085c-12.8-12.8-12.8-31.086 0-43.885z" horiz-adv-x="531" />
<glyph unicode="&#xe610;" d="M42.666 133.546l100.694-73.387 172.374 238.933-100.694 73.387-172.374-238.933zM291.84 295.68l-151.893-209.92-71.68 52.906 151.893 209.92 71.68-52.907zM244.897 414.195l102.285-74.084-25.029-34.555-102.285 74.084 25.029 34.555zM387.413 423.68l-75.094 54.613c-1.707 1.707-3.413 1.707-5.12 1.707-6.827 0-17.067-5.12-17.067-5.12l-23.894-34.133-15.36-22.187 102.4-73.387 15.36 22.187 23.894 34.133c0 0 1.707 18.774-5.12 22.186zM353.28 377.6l-5.12-6.827-73.387 52.906 5.12 6.827 20.48 29.013c1.707 0 3.413 1.707 3.413 1.707l68.267-49.493c0-1.707 0-3.413 0-5.12l-18.774-29.013zM0-32l139.946 85.334-102.4 73.387-37.547-158.72zM27.306 5.546v0zM49.493 97.707l58.026-42.666-80.213-49.493 22.186 92.16zM18.773-2.986l11.947 49.493 32.426-23.894z" horiz-adv-x="393" />
<glyph unicode="&#xe611;" d="M389.12 155.733l-11.947-11.947-37.546 37.546c23.894 30.72 37.546 69.974 37.546 112.64 0 104.106-85.334 186.026-186.026 186.026s-184.32-85.334-184.32-186.026 85.334-186.026 186.026-186.026c42.666 0 81.92 13.654 112.64 37.546l37.546-37.546-11.947-11.947 133.12-129.707 58.027 61.44-133.12 128zM51.2 293.974c0 76.8 63.147 141.654 141.654 141.654s141.654-63.147 141.654-141.654-63.147-141.654-141.654-141.654c-78.507-1.707-141.654 61.44-141.654 141.654z" horiz-adv-x="529" />
<glyph unicode="&#xe612;" d="M81.92 253.013c20.48 8.534 44.373 0 52.907-20.48l37.547 17.066c-3.413 6.827-3.413 13.654-3.413 20.48 3.413 22.186 22.186 37.546 44.374 35.84l5.12 40.96c-6.827 0-13.654 3.413-18.774 6.827-17.066 13.654-22.186 39.253-8.534 56.32l-32.427 25.6c-3.413-5.12-10.24-10.24-17.066-13.654-20.48-8.534-44.374 0-52.906 20.48l-37.547-17.066c3.413-6.827 3.413-13.654 3.413-20.48-3.413-22.186-22.187-37.546-44.373-35.84l-5.12-40.96c6.827 0 13.654-3.413 18.773-6.827 17.067-13.654 22.186-37.547 8.534-56.32l32.427-25.6c3.413 6.827 10.24 10.24 17.067 13.654v0zM68.266 341.76c3.413 23.894 23.894 40.96 47.787 37.547s40.96-23.894 37.547-47.787c-3.413-23.893-23.893-40.96-47.786-37.546-22.186 3.413-39.254 23.893-37.547 47.786zM114.347-4.693c23.894 10.24 51.2-1.707 61.44-27.307l46.080 18.774c-3.413 6.827-3.413 15.36-3.413 23.894 3.413 25.6 29.013 42.666 54.613 39.254l6.827 47.786c-8.534 1.707-15.36 5.12-22.187 10.24-20.48 17.067-23.893 46.080-6.827 66.56l-37.547 30.72c-5.12-6.827-11.946-11.947-20.48-15.36-23.893-10.24-51.2 1.707-61.44 27.307l-46.080-18.774c3.413-6.827 3.413-15.36 3.413-23.894-3.413-25.6-27.306-44.373-54.614-39.254l-6.826-47.786c8.534-1.707 15.36-5.12 22.186-10.24 20.48-15.36 23.894-46.080 6.827-66.56l37.547-30.72c5.12 6.827 11.947 11.947 20.48 15.36v0zM104.106 99.413c3.413 27.307 29.014 46.080 58.026 42.666 27.306-3.413 46.080-29.014 42.666-58.026-3.413-27.307-29.013-46.080-58.026-42.666-29.013 5.12-47.786 30.72-42.666 58.026zM414.72 104.534l68.267 17.067-3.413 52.906c5.12 3.413 11.947 6.827 17.067 11.947l49.493-20.48 35.84 59.733-40.96 35.84c1.707 6.827 3.413 13.654 3.413 20.48l49.494 20.48-17.067 68.267-52.907-3.413c-3.413 5.12-8.534 11.947-11.947 17.067l20.48 49.493-59.733 35.84-35.84-40.96c-6.827 1.707-13.654 3.413-20.48 3.413l-20.48 47.787-68.267-17.067 3.413-52.906c-5.12-3.413-11.947-6.827-17.067-11.947l-49.493 20.48-35.84-59.733 40.96-35.84c-1.707-6.827-3.413-13.654-3.413-20.48l-49.493-20.48 17.066-68.267 54.614 3.413c3.413-5.12 6.827-11.947 11.947-17.067l-20.48-49.493 59.733-35.84 35.84 40.96c6.827-1.707 13.654-3.413 20.48-3.413l18.774-47.786zM360.106 282.026c-6.827 25.6 8.534 49.493 34.134 56.32s49.493-8.534 56.32-34.134c6.827-25.6-8.534-49.493-34.133-56.32s-49.493 8.534-56.32 34.133z" horiz-adv-x="598" />
<glyph unicode="&#xe613;" d="M0 480v-56.889l381.156-273.067 2.844-2.844 381.156 273.067h2.845v59.733zM395.378 107.378c-5.689-5.689-14.222-5.689-19.911 0l-85.334 59.733-256-199.111h705.422l-256 199.111-88.178-59.733zM0 374.755v-381.156l256 199.111zM512 192.711l256-199.111v378.311l-250.311-176.356z" horiz-adv-x="768" />
</font>
</defs>
</svg>
