<svg height="208" viewBox="0 0 70 208" width="70" xmlns="http://www.w3.org/2000/svg" xmlns:xlink="http://www.w3.org/1999/xlink"><defs><path id="a" d="m49.0515478 92.5973658c-6.1615841.700349-11.1657486 3.4872718-15.2720755 7.9949592-4.7233735 5.185058-5.6397649 11.242798-4.3934698 17.966084 1.0172027 5.487429 2.3110132 10.912534 3.3497643 16.396175 3.9012905 20.595266-7.2659554 36.522076-22.366392 42.631575-3.21257616 1.299776-9.96032703 3.302556-10.11870721 1.979965-.14178635-1.184035-.71169761-2.662915 1.25074546-3.191209 3.61860342-.974149 5.07457919-2.347649 8.29144042-4.321521 7.60136963-4.664238 9.28261003-12.986048 8.15110043-21.780758-.855495-6.649358-2.5652167-13.109846-3.6339045-19.70913-2.219638-13.706532 2.9291198-24.285203 13.1739009-32.8833651 4.0080285-3.3638279 8.6547318-5.6834945 13.665403-7.7547347-.8291759-.8579249-1.8271946-1.124802-2.7291523-1.5160282-7.5686048-3.2828958-14.1173537-7.8329812-18.8798628-14.7339336-5.0436786-7.3083797-6.5864027-15.2817158-5.2868827-24.0169456 1.0451141-7.0251339 2.9050784-13.8820253 3.8724302-20.9262776 1.1427292-8.3213631-1.3944524-17.1585923-9.4786041-21.52832264-2.75201182-1.48754507-3.66552791-2.55982174-6.65651327-3.44819901-1.63807684-.48653896-2.41813421-2.18393167-1.7540737-3.67305489.42193602-.94617167 18.29681097 6.36039459 25.36474247 15.32943404 6.8355494 8.6741521 8.8602851 18.4315586 7.1853379 29.2455275-1.0029659 6.4754475-2.8064443 12.7723677-3.6952395 19.2785021-1.0283591 7.5277984 1.7990916 13.2160179 7.258357 17.9298486 3.544314 3.0603678 7.7868482 4.6793882 12.5375956 5.4880496.1640597 1.7100416.1640597 3.3805679.1640597 5.2433593z"/><filter id="b" height="117.8%" width="165.2%" x="-28.5%" y="-7.8%"><feOffset dx="2" dy="2" in="SourceAlpha" result="shadowOffsetOuter1"/><feGaussianBlur in="shadowOffsetOuter1" result="shadowBlurOuter1" stdDeviation="5"/><feColorMatrix in="shadowBlurOuter1" type="matrix" values="0 0 0 0 0   0 0 0 0 0   0 0 0 0 0  0 0 0 0.602819056 0"/></filter></defs><g fill="none" transform="translate(16 2)"><g opacity=".6" transform="matrix(-1 0 0 1 49.051548 0)"><use fill="#000" filter="url(#b)" xlink:href="#a"/><use fill="#d1d1d1" xlink:href="#a"/></g><path d="m9.20410156 201.811133c.38736979 0 .98502604-.221354 1.79296874-.664063l.8134766-.481445.7304687-.664062c.5865886-.354167 1.0071615-.802409 1.2617188-1.344727l.1992187.066406c.3443287-.034433.5547518-.082256.6312693-.14347l.0107776-.011772.3042422.171844v.066406h-.1992188v.132813h.53125v-.132813l-.0664062-.066406.4648437-.066406h.1328125v.066406l-.0664062.066406v.066406h.1328125c0-.177083.1106771-.265625.3320312-.265625h.0664063v.199219h.1328125l-.0664063-.199219v-.066406h.1328125c.2988282-.088542.4482422-.232422.4482422-.431641 0-.066406-.0885416-.132812-.265625-.199218-.5423177.188151-1.250651.193685-2.125.016601l-.3320312-.066406v-.265625l.0664062.066406.1328125-.132812c0-.088542-.0664062-.132813-.1992187-.132813v-.066406l.1992187-.265625c0-.309896-.1770833-.464844-.53125-.464844l-.1992187.066406-.265625-.132812c-.6197917.099609-.9296875.343099-.9296875.730469v.066406l.1328125.132812-.1328125.464844v.066406l.1992187.199219c.1438802.265625.3209636.398438.53125.398438l-.1328125.332031c-.719401 1.040365-1.6988932 1.626953-2.9384765 1.759766h-.0664063l.1328125-.199219-.26562499-.066406-.265625.132812-.19921875-.132812c0-.708334.69173174-1.975586 2.07519534-3.801758l1.0625-1.328125.6640625-.929688c1.8151041-1.560547 2.7226562-2.401692 2.7226562-2.523437.2434896-.121745.5755209-.38737.9960938-.796875l2.125-1.925781c0-.132813.0664062-.199219.1992187-.199219.0332032-.177084.1438802-.287761.3320313-.332031.8079427-.929688 1.250651-1.394532 1.328125-1.394532 0-.132812.0442708-.199218.1328125-.199218.6494531-.617579 1.1827219-1.133316 1.5998062-1.547213l.2608438-.260844c.5684729-.573431.8558083-.900433.8620062-.981006.9739584-.796875 1.4609375-1.35026 1.4609375-1.660156l.265625.066406.1328125-.132812v-.199219h-.265625l-.0664062.066406v-.066406l.3320312-.398438v-.132812l-.1992187-.199219-.3984375.132813-.1992188-.199219h-.1992187c-.2213542.110677-.3763021.332031-.4648438.664062l.1992188.066407c-1.8925781 1.693359-3.0878906 2.844401-3.5859375 3.453125-.6640625.57552-.9960938.907552-.9960938.996093-.8190104.730469-1.328125 1.283854-1.5273437 1.660157-.7083334.542317-1.0625.940755-1.0625 1.195312-.265625.088542-.3984375.177083-.3984375.265625-.265625.232422-.3984375.409505-.3984375.53125-.2545573.14388-.4316406.343099-.53125.597656-.3984375.265625-.5976563.486979-.5976563.664063-.3098958.188151-.4648437.365234-.4648437.53125-.3320313.232422-.7083334.652995-1.1289063 1.261719-2.844401 2.534505-5.0800781 4.216796-6.70703122 5.046875h-.1328125c0-.088542.1328125-.177084.3984375-.265625l-.1328125-.132813-.1328125.132813c-.265625 0-.3984375.066406-.3984375.199218-.88541667.088542-1.328125.221354-1.328125.398438v.132812c0 .088542.06640625.132813.19921875.132813l-.33203125.464844.3984375.398437h.1328125c.85221354-.276693 1.80403645-.830078 2.85546875-1.660156.57552083-.343099.86328125-.586589.86328125-.730469l2.45703122-1.925781h.0664063c-.1438802.309896-.2766927.464844-.3984375.464844v.132812c-1.2063802 1.472005-1.89257815 2.401693-2.05859377 2.789063-.14388021.387369-.21582032.636393-.21582032.74707-.44270833.453776-.6640625.940755-.6640625 1.460937v.066407c.30989584.398437.50911459.597656.59765625.597656zm6.19238284-9.844727h-.0664063v-.066406l.0664063-.066406v-.066406l-.0664063-.066407c.3541667-.077474.53125-.254557.53125-.53125.3984375-.298828.5976563-.498047.5976563-.597656.53125-.509115.796875-.81901.796875-.929687.7526041-.608724 1.1289062-.985027 1.1289062-1.128907 1.2395834-1.184245 1.859375-1.826172 1.859375-1.925781 1.1953125-.985026 1.7929688-1.538411 1.7929688-1.660156l1.59375-1.195313c-.3209636.475912-1.0071615 1.20638-2.0585938 2.191407-.453776.608723-1.1399739 1.339192-2.0585937 2.191406-.9407552 1.029297-1.9147136 1.936849-2.921875 2.722656-.3763021.442708-.7747396.81901-1.1953125 1.128906zm3.7519531 7.304688-.1992187-.066406.9296875-.398438v-.132812l-1.328125.464843h-.0664063l-.0664062-.066406-.1328125.132813h-.0664063l-.0664062-.066407-.1328125.132813c-.2766928-.121745-.4980469-.365235-.6640625-.730469.0442708-.276693.2877604-.741536.7304687-1.394531l1.0625-1.0625c1.2949219-1.007162 2.5123698-1.582683 3.6523438-1.726563l1.0625.132813v.066406c-.6197917 1.20638-.9296875 2.025391-.9296875 2.457031 0 .09961-.5976563.542318-1.7929688 1.328125zm6.6905625-.614094-.8634141.215656c0-.088541-.1328125-.177083-.3984375-.265625h-.0664062l-.0664063.066407-.0498046.066406h-.0664063v-.282227c-.3984375-.265625-.5976562-.614258-.5976562-1.045898l.6640625-.863281c.2766927-.24349.6087239-.885417.9960937-1.925782h.0664063v.066407l-.0664063.53125.4648438-.730469v-.132813c0-.088541-.0664063-.132812-.1992188-.132812l.0664063-.332031v-.132813l-.265625-.265625h-.1328125l-.3320313.066406c0-.243489-.5091146-.420573-1.5273437-.53125l-.1992188.132813h-.5976562c-1.3391928.420573-2.1582032.774739-2.4570313 1.0625v.066406h.1328125l.6640625-.332031v.132812l-.0664062.066407c-1.2617188.520182-2.4348959 1.538411-3.5195313 3.054687h-.1328125l-.0664062-.066406-.1328125.265625v.066406l.0664062.066406-.0664062.066407c-.2434896 0-.4648438.553385-.6640625 1.660156l.0664062.265625c.2766927.464844.6529948.752604 1.1289063.863281l.6640625-.132812c.9186197-.121745 2.4238281-.852214 4.515625-2.191407 0 .962891.5699869 1.538412 1.7099609 1.726563.8854167-.232422 1.328125-.392904 1.328125-.481446v-.066406l-.0664063-.066406c.1770834 0 .265625-.066406.265625-.199219v-.199219c0-.088541-.0664062-.132812-.1992187-.132812zm.3485 1.576984 1.3945313-.066406h.3984375l.1328125-.132812v-.066407l-.0664063-.066406h.3320313v.066406h-.1328125v.066407l.4648437.066406.1328125-.132813v-.066406l-.0664062-.066406h.1992187c0 .132812.0664063.199219.1992188.199219s.1992187-.044271.1992187-.132813l.1992188.066406c.1328125 0 .1992187-.04427.1992187-.132812l.3320313.066406.1328125-.132812h.0664062l.0664063.066406 1.6601562-.53125c.6529948-.154948 1.0957031-.420573 1.328125-.796875v-.132813l-.1328125-.199218c-2.1692708.841145-4.0065104 1.261718-5.5117187 1.261718l-.0664063-.066406-.265625.066406v-.132812c-.4869792-.154948-.7304687-.287761-.7304687-.398438v-.066406c1.2617187-1.427734 2.1914062-2.246745 2.7890625-2.457031.2434895-.287761.9739583-.686198 2.1914062-1.195313.9960938-.132812 1.59375-.332031 1.7929688-.597656l-.1328125-.398437.1328125-.199219c0-.210287-.3320313-.343099-.9960938-.398438-.4759115.199219-.8522135.420573-1.1289062.664063v.066406l.3320312-.066406h.0664063v.066406l-.796875.398438c-.9296875.332031-2.4791667 1.549479-4.6484375 3.652343h-.0664063v-.132812c-.1770833 0-.3763021.243489-.5976562.730469l.1328125.132812-.1992188.398438c.0996094.276692.3209635.520182.6640625.730468zm7.6367188 2.22461.3984375-.464844h.0664062l.0664063.066406h.0664062c.3320313-.652995.796875-1.272786 1.3945313-1.859375.7858072-.929687 1.2949218-1.394531 1.5273437-1.394531v.132813c0 .177083.4648438.332031 1.3945313.464843 2.5234375 1.383464 4.1393229 2.075196 4.8476562 2.075196h.0664063l.0664062-.066407v.066407l.0664063.066406.265625-.066406 1.0625.132812v-.066406c.5865885-.066406 1.3170572-.182617 2.1914062-.348633.1106771-.132812.2213542-.199219.3320313-.199219.2102864-.221354.3652343-.332031.4648437-.332031 1.3723958-1.106771 2.0585938-1.770833 2.0585938-1.992187l-.1992188-.199219h-.1328125c-1.3502604 1.151041-2.1028646 1.726562-2.2578125 1.726562-.4980469.166016-1.4277344.370768-2.7890625.614258l-.1328125-.265625h-.1992187v.199219h-.265625v-.066406c0-.143881-.3984375-.320964-1.1953125-.53125l-.265625.066406v-.132813c-.5976563-.232422-.9739584-.304362-1.1289063-.21582h-.1328125l-.0664062.066406c-.1217448-.309896-.2988282-.464843-.53125-.464843v-.132813c-.4537761-.188151-.874349-.475911-1.2617188-.863281v-.066406c3.0104167-.708334 4.9583333-1.726563 5.84375-3.054688.3541667-.77474.5755208-1.173177.6640625-1.195312l.0664063.199218h.0664062l.0664063-.066406-.0664063-.53125.0664063-.265625c0-.409505-.3763021-.652995-1.1289063-.730469l-.265625.066407-.265625-.066407h-.1328125l-.1992187.199219h-.0664063l-.0664062-.066406h-.0664063c-.1770833 0-.5533854.154948-1.1289062.464844v.066406l.0664062.066406.53125-.132812h.0664063v.066406c-1.1842448.28776-3.2207032 1.660156-6.109375 4.117187h-.0664063l-.0664062-.066406 1.1953125-1.527344c.5201822-.763672 1.1621093-1.427734 1.9257812-1.992187l4.9140625-3.984375c1.6822917-1.460938 3.0325521-2.744792 4.0507813-3.851563 1.8815104-2.091797 2.9661458-3.751953 3.2539062-4.980468h.0664063l.0664062.332031.1328125-.132813v-.066406l-.0664062-.398437v-.066407l.0664062-.066406v-.066406c0-.398438-.4205729-.597656-1.2617187-.597656-.6308594.243489-1.0735678.53125-1.328125.863281-.6751303.464844-1.0292969.796875-1.0625.996094h.0664062l.1328125-.132813h.1992188v.066406c-.1217448 0-.6972657.53125-1.7265625 1.59375-2.3020834 2.65625-5.0911459 6.131511-8.3671875 10.425782-1.4277344 1.626953-2.8886719 2.816731-4.3828125 3.569335l-1.5273438.796875h-.1992187c.3652343-.265625.6308593-.398437.796875-.398437v-.132813h-.1328125l-.6640625.332032-.1992188-.066407-.265625.132813v-.066406c-.2545573.044271-.3873698.110677-.3984375.199218-.5755208 0-.8632812.154948-.8632812.464844v.132813h.1328125v.066406c-.1770834.022135-.265625.088542-.265625.199219v.265625h.1328125c.0664062.265625.1992187.398437.3984375.398437.4095052-.088541.8743489-.28776 1.3945312-.597656l.9296875-.464844c1.7708333-1.040364 2.65625-1.638021 2.65625-1.792969l.0664063-.066406.0664062.066406h.1328125l-2.8554687 3.204102h-.0664063l-.0664062-.066406h-.1328125l-.0664063.066406.0664063.265625v.066406h-.0664063v-.132812h-.1328125c-.3541667.43164-.6419271.719401-.8632812.863281.0332031.221354.0996093.332031.1992187.332031l-.265625.464844.0664063.066406.265625-.066406h.0664062v.066406l-.0664062.066407v.199218l.1328125.132813zm7.1054687-9.429688 2.390625-3.121093 3.5195313-4.25c2.4459635-2.711589 4.0839843-4.083985 4.9140625-4.117188h.0664062l-.1992187.332031.0664062.199219c-.1328125 0-.3984375.376302-.796875 1.128906v.132813l.0664063.066406-.0664063.066406h-.0664062l-.0664063-.066406.0664063.199219-.1992188.265625h-.0664062l-.0664063-.066406h-.0664062l-.0664063.066406.1328125.132812c-.4205729.686198-1.2838542 1.704427-2.5898437 3.054688-2.9440105 2.777995-5.2682292 4.770182-6.9726563 5.976562zm-1.859375 4.449219-.3320312-.066406v-.066406l.6640625-.597657c2.5123697-1.859375 4.3274739-2.789062 5.4453125-2.789062l.265625.132812c-.0996094.398438-.7194011 1.040365-1.859375 1.925782l-1.7929688.863281v.066406l.0664063.066406-.4648438.199219v-.066406l-.0664062-.066406.3984375-.066407v-.132812l-.0664063-.066406c-.6640625.166015-.9960937.298828-.9960937.398437l-.0664063-.066406c-.2213542 0-.3541667.066406-.3984375.199219h-.0664062l-.0664063-.066407h-.1328125l-.0664062.066407-.0664063-.066407c-.2213542 0-.3541667.066407-.3984375.199219zm3.3203125-.730469h-.0664062c.0553385-.121745.4316406-.343099 1.1289062-.664062l1.0625-.796875v.132812c-.7526042.575521-1.4609375 1.018229-2.125 1.328125zm-2.3242187.730469v-.132812l.7304687-.199219h.0664063c0 .110677-.265625.221354-.796875.332031z" fill="#fff"/></g></svg>