<?xml version="1.0" encoding="utf-8"?>
<!-- Generator: Adobe Illustrator 18.0.0, SVG Export Plug-In . SVG Version: 6.00 Build 0)  -->
<!DOCTYPE svg PUBLIC "-//W3C//DTD SVG 1.1//EN" "http://www.w3.org/Graphics/SVG/1.1/DTD/svg11.dtd">
<svg version="1.1" id="Layer_1" xmlns="http://www.w3.org/2000/svg" xmlns:xlink="http://www.w3.org/1999/xlink" x="0px" y="0px"
	 viewBox="0 0 21 30" enable-background="new 0 0 21 30" xml:space="preserve">
<path fill="#4F4F4F" d="M19.2,1c-0.6-0.3-2.1-1-3.1-1c-1.5,0-2.1,0.9-2.3,1.4L7,19.5l-1.6-5.2c-0.2-0.6-0.8-1.6-2.5-1.6
	c-1.8,0-2.4,1.1-2.5,1.6l-0.1,0.3c-0.2,1,0.9,4.7,1.6,6.8l2.6,7.2c0.3,0.7,1,1.4,2.8,1.4c1.8,0,2.5-0.8,2.7-1.4L20.4,4.2
	c0.2-0.3,0.2-0.7,0.2-1.1C20.7,2.6,20.4,1.7,19.2,1z"/>
</svg>
