<?xml version="1.0" encoding="utf-8"?>
<!-- Generator: Adobe Illustrator 18.0.0, SVG Export Plug-In . SVG Version: 6.00 Build 0)  -->
<!DOCTYPE svg PUBLIC "-//W3C//DTD SVG 1.1//EN" "http://www.w3.org/Graphics/SVG/1.1/DTD/svg11.dtd">
<svg version="1.1" id="Layer_1" xmlns="http://www.w3.org/2000/svg" xmlns:xlink="http://www.w3.org/1999/xlink" x="0px" y="0px"
	 viewBox="0 0 1024 768" enable-background="new 0 0 1024 768" xml:space="preserve">
<g>
	<path fill="#4F4F4F" d="M636.1,768V583.6h24c20.5,0,37.5-16.9,37.5-37.5V354.8c0-41.2-33.9-78.4-75.3-78.4H404.2
		c-41.4,0-75.2,37.1-75.2,78.4v191.3c0,20.7,16.8,37.5,37.5,37.5h23.9V768H636.1z"/>
	<path fill-rule="evenodd" clip-rule="evenodd" fill="#4F4F4F" d="M390.4,122.8C390.4,55,445.4,0,513.2,0
		c67.9,0,122.9,55,122.9,122.8c0,67.9-55,122.9-122.9,122.9C445.4,245.7,390.4,190.7,390.4,122.8z"/>
</g>
</svg>
