<?xml version="1.0" encoding="utf-8"?>
<!-- Generator: Adobe Illustrator 18.0.0, SVG Export Plug-In . SVG Version: 6.00 Build 0)  -->
<!DOCTYPE svg PUBLIC "-//W3C//DTD SVG 1.1//EN" "http://www.w3.org/Graphics/SVG/1.1/DTD/svg11.dtd">
<svg version="1.1" id="Layer_1" xmlns="http://www.w3.org/2000/svg" xmlns:xlink="http://www.w3.org/1999/xlink" x="0px" y="0px"
	 viewBox="0 0 31 29" enable-background="new 0 0 31 29" xml:space="preserve">
<g>
	<rect x="0.3" y="14.5" fill="#4F4F4F" width="6" height="14.2"/>
	<path fill="#4F4F4F" d="M7.2,17.9v10.6c0,0,18.4,1.1,19.6,0c1.1-1,0.8-2.7,0.8-2.7s1.9-1.2,1.9-2.3c0-1.1,0.1-2.4,0.1-2.4
		s1.2-2.1,1-3c-0.2-0.8-0.9-2.7-0.9-2.7s1.6-1.4,0.9-3.4c-5.4-2.2-10,0-12-0.5C20,9.5,24.2,0,19.1,0c-4,0-2.7,8-7.1,10.1
		C7.2,12.5,7.2,17.9,7.2,17.9z"/>
</g>
</svg>
