<?xml version="1.0" encoding="UTF-8"?>
<svg width="70px" height="208px" viewBox="0 0 70 208" version="1.1" xmlns="http://www.w3.org/2000/svg" xmlns:xlink="http://www.w3.org/1999/xlink">
    <title>btnBack</title>
    <defs>
        <path d="M49.0515478,92.5973658 C42.8899637,93.2977148 37.8857992,96.0846376 33.7794723,100.592325 C29.0560988,105.777383 28.1397074,111.835123 29.3860025,118.558409 C30.4032052,124.045838 31.6970157,129.470943 32.7357668,134.954584 C36.6370573,155.54985 25.4698114,171.47666 10.3693748,177.586159 C7.15679864,178.885935 0.409047771,180.888715 0.250667591,179.566124 C0.108881239,178.382089 -0.461030015,176.903209 1.50141305,176.374915 C5.12001647,175.400766 6.57599224,174.027266 9.79285347,172.053394 C17.3942231,167.389156 19.0754635,159.067346 17.9439539,150.272636 C17.0884589,143.623278 15.3787372,137.16279 14.3100494,130.563506 C12.0904114,116.856974 17.2391692,106.278303 27.4839503,97.6801409 C31.4919788,94.316313 36.1386821,91.9966464 41.1493533,89.9254062 C40.3201774,89.0674813 39.3221587,88.8006042 38.420201,88.409378 C30.8515962,85.1264822 24.3028473,80.5763968 19.5403382,73.6754444 C14.4966596,66.3670647 12.9539355,58.3937286 14.2534555,49.6584988 C15.2985696,42.6333649 17.1585339,35.7764735 18.1258857,28.7322212 C19.2686149,20.4108581 16.7314333,11.5736289 8.6472816,7.20389856 C5.89526978,5.71635349 4.98175369,4.64407682 1.99076833,3.75569955 C0.352691485,3.26916059 -0.427365877,1.57176788 0.236694629,0.0826446622 C0.65863065,-0.863527011 18.5335056,6.44303925 25.6014371,15.4120787 C32.4369865,24.0862308 34.4617222,33.8436373 32.786775,44.6576062 C31.7838091,51.1330537 29.9803307,57.4299739 29.0915355,63.9361083 C28.0631764,71.4639067 30.8906271,77.1521262 36.3498925,81.8659569 C39.8942065,84.9263247 44.1367407,86.5453451 48.8874881,87.3540065 C49.0515478,89.0640481 49.0515478,90.7345744 49.0515478,92.5973658 Z" id="path-1"></path>
        <filter x="-28.5%" y="-7.8%" width="165.2%" height="117.8%" filterUnits="objectBoundingBox" id="filter-2">
            <feOffset dx="2" dy="2" in="SourceAlpha" result="shadowOffsetOuter1"></feOffset>
            <feGaussianBlur stdDeviation="5" in="shadowOffsetOuter1" result="shadowBlurOuter1"></feGaussianBlur>
            <feColorMatrix values="0 0 0 0 0   0 0 0 0 0   0 0 0 0 0  0 0 0 0.602819056 0" type="matrix" in="shadowBlurOuter1"></feColorMatrix>
        </filter>
    </defs>
    <g id="btnBack" stroke="none" stroke-width="1" fill="none" fill-rule="evenodd">
        <g id="v4" transform="translate(16.000000, 2.000000)" fill-rule="nonzero">
            <g id="Path" opacity="0.6" transform="translate(24.525774, 90.000000) scale(-1, 1) translate(-24.525774, -90.000000) ">
                <use fill="black" fill-opacity="1" filter="url(#filter-2)" xlink:href="#path-1"></use>
                <use fill="#D1D1D1" xlink:href="#path-1"></use>
            </g>
            <path d="M9.20410156,201.811133 C9.59147135,201.811133 10.1891276,201.589779 10.9970703,201.14707 L10.9970703,201.14707 L11.8105469,200.665625 L12.5410156,200.001563 C13.1276042,199.647396 13.5481771,199.199154 13.8027344,198.656836 L13.8027344,198.656836 L14.0019531,198.723242 C14.3462818,198.688809 14.5567049,198.640986 14.6332224,198.579772 L14.644,198.568 L14.9482422,198.739844 L14.9482422,198.80625 L14.7490234,198.80625 L14.7490234,198.939063 L15.2802734,198.939063 L15.2802734,198.80625 L15.2138672,198.739844 L15.6787109,198.673438 L15.8115234,198.673438 L15.8115234,198.739844 L15.7451172,198.80625 L15.7451172,198.872656 L15.8779297,198.872656 C15.8779297,198.695573 15.9886068,198.607031 16.2099609,198.607031 L16.2099609,198.607031 L16.2763672,198.607031 L16.2763672,198.80625 L16.4091797,198.80625 L16.3427734,198.607031 L16.3427734,198.540625 L16.4755859,198.540625 C16.7744141,198.452083 16.9238281,198.308203 16.9238281,198.108984 C16.9238281,198.042578 16.8352865,197.976172 16.6582031,197.909766 C16.1158854,198.097917 15.4075521,198.103451 14.5332031,197.926367 L14.5332031,197.926367 L14.2011719,197.859961 L14.2011719,197.594336 L14.2675781,197.660742 L14.4003906,197.52793 C14.4003906,197.439388 14.3339844,197.395117 14.2011719,197.395117 L14.2011719,197.395117 L14.2011719,197.328711 L14.4003906,197.063086 C14.4003906,196.75319 14.2233073,196.598242 13.8691406,196.598242 L13.8691406,196.598242 L13.6699219,196.664648 L13.4042969,196.531836 C12.7845052,196.631445 12.4746094,196.874935 12.4746094,197.262305 L12.4746094,197.262305 L12.4746094,197.328711 L12.6074219,197.461523 L12.4746094,197.926367 L12.4746094,197.992773 L12.6738281,198.191992 C12.8177083,198.457617 12.9947917,198.59043 13.2050781,198.59043 L13.2050781,198.59043 L13.0722656,198.922461 C12.3528646,199.962826 11.3733724,200.549414 10.1337891,200.682227 L10.1337891,200.682227 L10.0673828,200.682227 L10.2001953,200.483008 L9.93457031,200.416602 L9.66894531,200.549414 L9.46972656,200.416602 C9.46972656,199.708268 10.1614583,198.441016 11.5449219,196.614844 L11.5449219,196.614844 L12.6074219,195.286719 L13.2714844,194.357031 C15.0865885,192.796484 15.9941406,191.955339 15.9941406,191.833594 C16.2376302,191.711849 16.5696615,191.446224 16.9902344,191.036719 L16.9902344,191.036719 L19.1152344,189.110938 C19.1152344,188.978125 19.1816406,188.911719 19.3144531,188.911719 C19.3476563,188.734635 19.4583333,188.623958 19.6464844,188.579688 C20.4544271,187.65 20.8971354,187.185156 20.9746094,187.185156 C20.9746094,187.052344 21.0188802,186.985938 21.1074219,186.985938 C21.756875,186.368359 22.2901438,185.852622 22.7072281,185.438725 L22.9680719,185.177881 C23.5365448,184.60445 23.8238802,184.277448 23.8300781,184.196875 C24.8040365,183.4 25.2910156,182.846615 25.2910156,182.536719 L25.2910156,182.536719 L25.5566406,182.603125 L25.6894531,182.470313 L25.6894531,182.271094 L25.4238281,182.271094 L25.3574219,182.3375 L25.3574219,182.271094 L25.6894531,181.872656 L25.6894531,181.739844 L25.4902344,181.540625 L25.0917969,181.673438 L24.8925781,181.474219 L24.6933594,181.474219 C24.4720052,181.584896 24.3170573,181.80625 24.2285156,182.138281 L24.2285156,182.138281 L24.4277344,182.204688 C22.5351563,183.898047 21.3398438,185.049089 20.8417969,185.657813 C20.1777344,186.233333 19.8457031,186.565365 19.8457031,186.653906 C19.0266927,187.384375 18.5175781,187.93776 18.3183594,188.314063 C17.610026,188.85638 17.2558594,189.254818 17.2558594,189.509375 C16.9902344,189.597917 16.8574219,189.686458 16.8574219,189.775 C16.5917969,190.007422 16.4589844,190.184505 16.4589844,190.30625 C16.2044271,190.45013 16.0273438,190.649349 15.9277344,190.903906 C15.5292969,191.169531 15.3300781,191.390885 15.3300781,191.567969 C15.0201823,191.75612 14.8652344,191.933203 14.8652344,192.099219 C14.5332031,192.331641 14.156901,192.752214 13.7363281,193.360938 C10.8919271,195.895443 8.65625,197.577734 7.02929688,198.407813 L7.02929688,198.407813 L6.89648438,198.407813 C6.89648438,198.319271 7.02929688,198.230729 7.29492188,198.142188 L7.29492188,198.142188 L7.16210938,198.009375 L7.02929688,198.142188 C6.76367188,198.142188 6.63085938,198.208594 6.63085938,198.341406 C5.74544271,198.429948 5.30273438,198.56276 5.30273438,198.739844 L5.30273438,198.739844 L5.30273438,198.872656 C5.30273438,198.961198 5.36914063,199.005469 5.50195313,199.005469 L5.50195313,199.005469 L5.16992188,199.470313 L5.56835938,199.86875 L5.70117188,199.86875 C6.55338542,199.592057 7.50520833,199.038672 8.55664063,198.208594 C9.13216146,197.865495 9.41992188,197.622005 9.41992188,197.478125 L9.41992188,197.478125 L11.8769531,195.552344 L11.9433594,195.552344 C11.7994792,195.86224 11.6666667,196.017188 11.5449219,196.017188 L11.5449219,196.017188 L11.5449219,196.15 C10.3385417,197.622005 9.65234375,198.551693 9.48632813,198.939063 C9.34244792,199.326432 9.27050781,199.575456 9.27050781,199.686133 C8.82779948,200.139909 8.60644531,200.626888 8.60644531,201.14707 L8.60644531,201.14707 L8.60644531,201.213477 C8.91634115,201.611914 9.1155599,201.811133 9.20410156,201.811133 Z M15.3964844,191.966406 L15.3300781,191.966406 L15.3300781,191.9 L15.3964844,191.833594 L15.3964844,191.767188 L15.3300781,191.700781 C15.6842448,191.623307 15.8613281,191.446224 15.8613281,191.169531 C16.2597656,190.870703 16.4589844,190.671484 16.4589844,190.571875 C16.9902344,190.06276 17.2558594,189.752865 17.2558594,189.642188 C18.0084635,189.033464 18.3847656,188.657161 18.3847656,188.513281 C19.624349,187.329036 20.2441406,186.687109 20.2441406,186.5875 C21.4394531,185.602474 22.0371094,185.049089 22.0371094,184.927344 L22.0371094,184.927344 L23.6308594,183.732031 C23.3098958,184.207943 22.6236979,184.938411 21.5722656,185.923438 C21.1184896,186.532161 20.4322917,187.26263 19.5136719,188.114844 C18.5729167,189.144141 17.5989583,190.051693 16.5917969,190.8375 C16.2154948,191.280208 15.8170573,191.65651 15.3964844,191.966406 L15.3964844,191.966406 Z M19.1484375,199.271094 L18.9492188,199.204688 L19.8789063,198.80625 L19.8789063,198.673438 L18.5507813,199.138281 L18.484375,199.138281 L18.4179688,199.071875 L18.2851563,199.204688 L18.21875,199.204688 L18.1523438,199.138281 L18.0195313,199.271094 C17.7428385,199.149349 17.5214844,198.905859 17.3554688,198.540625 C17.3997396,198.263932 17.6432292,197.799089 18.0859375,197.146094 L18.0859375,197.146094 L19.1484375,196.083594 C20.4433594,195.076432 21.6608073,194.500911 22.8007813,194.357031 L22.8007813,194.357031 L23.8632813,194.489844 L23.8632813,194.55625 C23.2434896,195.76263 22.9335938,196.581641 22.9335938,197.013281 C22.9335938,197.112891 22.3359375,197.555599 21.140625,198.341406 L21.140625,198.341406 L19.1484375,199.271094 Z M25.839,198.657 L24.9755859,198.872656 C24.9755859,198.784115 24.8427734,198.695573 24.5771484,198.607031 L24.5771484,198.607031 L24.5107422,198.607031 L24.4443359,198.673438 L24.3945313,198.739844 L24.328125,198.739844 L24.328125,198.457617 C23.9296875,198.191992 23.7304688,197.843359 23.7304688,197.411719 L23.7304688,197.411719 L24.3945313,196.548438 C24.671224,196.304948 25.0032552,195.663021 25.390625,194.622656 L25.390625,194.622656 L25.4570313,194.622656 L25.4570313,194.689063 L25.390625,195.220313 L25.8554688,194.489844 L25.8554688,194.357031 C25.8554688,194.26849 25.7890625,194.224219 25.65625,194.224219 L25.65625,194.224219 L25.7226563,193.892188 L25.7226563,193.759375 L25.4570313,193.49375 L25.3242188,193.49375 L24.9921875,193.560156 C24.9921875,193.316667 24.4830729,193.139583 23.4648438,193.028906 L23.4648438,193.028906 L23.265625,193.161719 L22.6679688,193.161719 C21.328776,193.582292 20.5097656,193.936458 20.2109375,194.224219 L20.2109375,194.224219 L20.2109375,194.290625 L20.34375,194.290625 L21.0078125,193.958594 L21.0078125,194.091406 L20.9414063,194.157813 C19.6796875,194.677995 18.5065104,195.696224 17.421875,197.2125 L17.421875,197.2125 L17.2890625,197.2125 L17.2226563,197.146094 L17.0898438,197.411719 L17.0898438,197.478125 L17.15625,197.544531 L17.0898438,197.610938 C16.8463542,197.610938 16.625,198.164323 16.4257813,199.271094 L16.4257813,199.271094 L16.4921875,199.536719 C16.7688802,200.001563 17.1451823,200.289323 17.6210938,200.4 L17.6210938,200.4 L18.2851563,200.267188 C19.203776,200.145443 20.7089844,199.414974 22.8007813,198.075781 C22.8007813,199.038672 23.3707682,199.614193 24.5107422,199.802344 C25.3961589,199.569922 25.8388672,199.40944 25.8388672,199.320898 L25.8388672,199.320898 L25.8388672,199.254492 L25.7724609,199.188086 C25.9495443,199.188086 26.0380859,199.12168 26.0380859,198.988867 L26.0380859,198.988867 L26.0380859,198.789648 C26.0380859,198.701107 25.9716797,198.656836 25.8388672,198.656836 L25.839,198.657 Z M26.1875,200.233984 L27.5820313,200.167578 L27.9804688,200.167578 L28.1132813,200.034766 L28.1132813,199.968359 L28.046875,199.901953 L28.3789063,199.901953 L28.3789063,199.968359 L28.2460938,199.968359 L28.2460938,200.034766 L28.7109375,200.101172 L28.84375,199.968359 L28.84375,199.901953 L28.7773438,199.835547 L28.9765625,199.835547 C28.9765625,199.968359 29.0429688,200.034766 29.1757813,200.034766 C29.3085938,200.034766 29.375,199.990495 29.375,199.901953 L29.375,199.901953 L29.5742188,199.968359 C29.7070313,199.968359 29.7734375,199.924089 29.7734375,199.835547 L29.7734375,199.835547 L30.1054688,199.901953 L30.2382813,199.769141 L30.3046875,199.769141 L30.3710938,199.835547 L32.03125,199.304297 C32.6842448,199.149349 33.1269531,198.883724 33.359375,198.507422 L33.359375,198.507422 L33.359375,198.374609 L33.2265625,198.175391 C31.0572917,199.016536 29.2200521,199.437109 27.7148438,199.437109 L27.7148438,199.437109 L27.6484375,199.370703 L27.3828125,199.437109 L27.3828125,199.304297 C26.8958333,199.149349 26.6523438,199.016536 26.6523438,198.905859 L26.6523438,198.905859 L26.6523438,198.839453 C27.9140625,197.411719 28.84375,196.592708 29.4414063,196.382422 C29.6848958,196.094661 30.4153646,195.696224 31.6328125,195.187109 C32.6289063,195.054297 33.2265625,194.855078 33.4257813,194.589453 L33.4257813,194.589453 L33.2929688,194.191016 L33.4257813,193.991797 C33.4257813,193.78151 33.09375,193.648698 32.4296875,193.593359 C31.953776,193.792578 31.577474,194.013932 31.3007813,194.257422 L31.3007813,194.257422 L31.3007813,194.323828 L31.6328125,194.257422 L31.6992188,194.257422 L31.6992188,194.323828 L30.9023438,194.722266 C29.9726563,195.054297 28.4231771,196.271745 26.2539063,198.374609 L26.2539063,198.374609 L26.1875,198.374609 L26.1875,198.241797 C26.0104167,198.241797 25.8111979,198.485286 25.5898438,198.972266 L25.5898438,198.972266 L25.7226563,199.105078 L25.5234375,199.503516 C25.6230469,199.780208 25.844401,200.023698 26.1875,200.233984 L26.1875,200.233984 Z M33.8242188,202.458594 L34.2226563,201.99375 L34.2890625,201.99375 L34.3554688,202.060156 L34.421875,202.060156 C34.7539063,201.407161 35.21875,200.78737 35.8164063,200.200781 C36.6022135,199.271094 37.1113281,198.80625 37.34375,198.80625 L37.34375,198.80625 L37.34375,198.939063 C37.34375,199.116146 37.8085938,199.271094 38.7382813,199.403906 C41.2617188,200.78737 42.8776042,201.479102 43.5859375,201.479102 L43.5859375,201.479102 L43.6523438,201.479102 L43.71875,201.412695 L43.71875,201.479102 L43.7851563,201.545508 L44.0507813,201.479102 L45.1132813,201.611914 L45.1132813,201.545508 C45.6998698,201.479102 46.4303385,201.362891 47.3046875,201.196875 C47.4153646,201.064063 47.5260417,200.997656 47.6367188,200.997656 C47.8470052,200.776302 48.0019531,200.665625 48.1015625,200.665625 C49.4739583,199.558854 50.1601563,198.894792 50.1601563,198.673438 L50.1601563,198.673438 L49.9609375,198.474219 L49.828125,198.474219 C48.4778646,199.62526 47.7252604,200.200781 47.5703125,200.200781 C47.0722656,200.366797 46.1425781,200.571549 44.78125,200.815039 L44.78125,200.815039 L44.6484375,200.549414 L44.4492188,200.549414 L44.4492188,200.748633 L44.1835938,200.748633 L44.1835938,200.682227 C44.1835938,200.538346 43.7851563,200.361263 42.9882813,200.150977 L42.9882813,200.150977 L42.7226563,200.217383 L42.7226563,200.08457 C42.125,199.852148 41.7486979,199.780208 41.59375,199.86875 L41.59375,199.86875 L41.4609375,199.86875 L41.3945313,199.935156 C41.2727865,199.62526 41.0957031,199.470313 40.8632813,199.470313 L40.8632813,199.470313 L40.8632813,199.3375 C40.4095052,199.149349 39.9889323,198.861589 39.6015625,198.474219 L39.6015625,198.474219 L39.6015625,198.407813 C42.6119792,197.699479 44.5598958,196.68125 45.4453125,195.353125 C45.7994792,194.578385 46.0208333,194.179948 46.109375,194.157813 L46.109375,194.157813 L46.1757813,194.357031 L46.2421875,194.357031 L46.3085938,194.290625 L46.2421875,193.759375 L46.3085938,193.49375 C46.3085938,193.084245 45.9322917,192.840755 45.1796875,192.763281 L45.1796875,192.763281 L44.9140625,192.829688 L44.6484375,192.763281 L44.515625,192.763281 L44.3164063,192.9625 L44.25,192.9625 L44.1835938,192.896094 L44.1171875,192.896094 C43.9401042,192.896094 43.5638021,193.051042 42.9882813,193.360938 L42.9882813,193.360938 L42.9882813,193.427344 L43.0546875,193.49375 L43.5859375,193.360938 L43.6523438,193.360938 L43.6523438,193.427344 C42.468099,193.715104 40.4316406,195.0875 37.5429688,197.544531 L37.5429688,197.544531 L37.4765625,197.544531 L37.4101563,197.478125 L38.6054688,195.950781 C39.125651,195.187109 39.7675781,194.523047 40.53125,193.958594 L40.53125,193.958594 L45.4453125,189.974219 C47.1276042,188.513281 48.4778646,187.229427 49.4960938,186.122656 C51.3776042,184.030859 52.4622396,182.370703 52.75,181.142188 L52.75,181.142188 L52.8164063,181.142188 L52.8828125,181.474219 L53.015625,181.341406 L53.015625,181.275 L52.9492188,180.876563 L52.9492188,180.810156 L53.015625,180.74375 L53.015625,180.677344 C53.015625,180.278906 52.5950521,180.079688 51.7539063,180.079688 C51.1230469,180.323177 50.6803385,180.610938 50.4257813,180.942969 C49.750651,181.407813 49.3964844,181.739844 49.3632813,181.939063 L49.3632813,181.939063 L49.4296875,181.939063 L49.5625,181.80625 L49.7617188,181.80625 L49.7617188,181.872656 C49.639974,181.872656 49.0644531,182.403906 48.0351563,183.466406 C45.7330729,186.122656 42.9440104,189.597917 39.6679688,193.892188 C38.2402344,195.519141 36.7792969,196.708919 35.2851563,197.461523 L35.2851563,197.461523 L33.7578125,198.258398 L33.5585938,198.258398 C33.9238281,197.992773 34.1894531,197.859961 34.3554688,197.859961 L34.3554688,197.859961 L34.3554688,197.727148 L34.2226563,197.727148 L33.5585938,198.05918 L33.359375,197.992773 L33.09375,198.125586 L33.09375,198.05918 C32.8391927,198.103451 32.7063802,198.169857 32.6953125,198.258398 C32.1197917,198.258398 31.8320313,198.413346 31.8320313,198.723242 L31.8320313,198.723242 L31.8320313,198.856055 L31.9648438,198.856055 L31.9648438,198.922461 C31.7877604,198.944596 31.6992188,199.011003 31.6992188,199.12168 L31.6992188,199.12168 L31.6992188,199.387305 L31.8320313,199.387305 C31.8984375,199.65293 32.03125,199.785742 32.2304688,199.785742 C32.639974,199.697201 33.1048177,199.497982 33.625,199.188086 L33.625,199.188086 L34.5546875,198.723242 C36.3255208,197.682878 37.2109375,197.085221 37.2109375,196.930273 L37.2109375,196.930273 L37.2773438,196.863867 L37.34375,196.930273 L37.4765625,196.930273 L34.6210938,200.134375 L34.5546875,200.134375 L34.4882813,200.067969 L34.3554688,200.067969 L34.2890625,200.134375 L34.3554688,200.4 L34.3554688,200.466406 L34.2890625,200.466406 L34.2890625,200.333594 L34.15625,200.333594 C33.8020833,200.765234 33.5143229,201.052995 33.2929688,201.196875 C33.3261719,201.418229 33.3925781,201.528906 33.4921875,201.528906 L33.4921875,201.528906 L33.2265625,201.99375 L33.2929688,202.060156 L33.5585938,201.99375 L33.625,201.99375 L33.625,202.060156 L33.5585938,202.126563 L33.5585938,202.325781 L33.6914063,202.458594 L33.8242188,202.458594 Z M40.9296875,193.028906 L43.3203125,189.907813 L46.8398438,185.657813 C49.2858073,182.946224 50.9238281,181.573828 51.7539063,181.540625 L51.7539063,181.540625 L51.8203125,181.540625 L51.6210938,181.872656 L51.6875,182.071875 C51.5546875,182.071875 51.2890625,182.448177 50.890625,183.200781 L50.890625,183.200781 L50.890625,183.333594 L50.9570313,183.4 L50.890625,183.466406 L50.8242188,183.466406 L50.7578125,183.4 L50.8242188,183.599219 L50.625,183.864844 L50.5585938,183.864844 L50.4921875,183.798438 L50.4257813,183.798438 L50.359375,183.864844 L50.4921875,183.997656 C50.0716146,184.683854 49.2083333,185.702083 47.9023438,187.052344 C44.9583333,189.830339 42.6341146,191.822526 40.9296875,193.028906 L40.9296875,193.028906 Z M39.0703125,197.478125 L38.7382813,197.411719 L38.7382813,197.345313 L39.4023438,196.747656 C41.9147135,194.888281 43.7298177,193.958594 44.8476563,193.958594 L44.8476563,193.958594 L45.1132813,194.091406 C45.0136719,194.489844 44.3938802,195.131771 43.2539063,196.017188 L43.2539063,196.017188 L41.4609375,196.880469 L41.4609375,196.946875 L41.5273438,197.013281 L41.0625,197.2125 L41.0625,197.146094 L40.9960938,197.079688 L41.3945313,197.013281 L41.3945313,196.880469 L41.328125,196.814063 C40.6640625,196.980078 40.3320313,197.112891 40.3320313,197.2125 L40.3320313,197.2125 L40.265625,197.146094 C40.0442708,197.146094 39.9114583,197.2125 39.8671875,197.345313 L39.8671875,197.345313 L39.8007813,197.345313 L39.734375,197.278906 L39.6015625,197.278906 L39.5351563,197.345313 L39.46875,197.278906 C39.2473958,197.278906 39.1145833,197.345313 39.0703125,197.478125 L39.0703125,197.478125 Z M42.390625,196.747656 L42.3242188,196.747656 C42.3795573,196.625911 42.7558594,196.404557 43.453125,196.083594 L43.453125,196.083594 L44.515625,195.286719 L44.515625,195.419531 C43.7630208,195.995052 43.0546875,196.43776 42.390625,196.747656 L42.390625,196.747656 Z M40.0664063,197.478125 L40.0664063,197.345313 L40.796875,197.146094 L40.8632813,197.146094 C40.8632813,197.256771 40.5976563,197.367448 40.0664063,197.478125 L40.0664063,197.478125 Z" id="back" fill="#FFFFFF"></path>
        </g>
    </g>
</svg>