<?xml version="1.0" encoding="UTF-8"?>
<svg width="70px" height="208px" viewBox="0 0 70 208" version="1.1" xmlns="http://www.w3.org/2000/svg" xmlns:xlink="http://www.w3.org/1999/xlink">
    <title>btnBack</title>
    <g id="btnBack" stroke="none" stroke-width="1" fill="none" fill-rule="evenodd">
        <g id="v3" transform="translate(13.000000, 2.000000)" fill-rule="nonzero">
            <path d="M12.2041016,201.811133 C12.5914714,201.811133 13.1891276,201.589779 13.9970703,201.14707 L13.9970703,201.14707 L14.8105469,200.665625 L15.5410156,200.001563 C16.1276042,199.647396 16.5481771,199.199154 16.8027344,198.656836 L16.8027344,198.656836 L17.0019531,198.723242 C17.3462818,198.688809 17.5567049,198.640986 17.6332224,198.579772 L17.644,198.568 L17.9482422,198.739844 L17.9482422,198.80625 L17.7490234,198.80625 L17.7490234,198.939063 L18.2802734,198.939063 L18.2802734,198.80625 L18.2138672,198.739844 L18.6787109,198.673438 L18.8115234,198.673438 L18.8115234,198.739844 L18.7451172,198.80625 L18.7451172,198.872656 L18.8779297,198.872656 C18.8779297,198.695573 18.9886068,198.607031 19.2099609,198.607031 L19.2099609,198.607031 L19.2763672,198.607031 L19.2763672,198.80625 L19.4091797,198.80625 L19.3427734,198.607031 L19.3427734,198.540625 L19.4755859,198.540625 C19.7744141,198.452083 19.9238281,198.308203 19.9238281,198.108984 C19.9238281,198.042578 19.8352865,197.976172 19.6582031,197.909766 C19.1158854,198.097917 18.4075521,198.103451 17.5332031,197.926367 L17.5332031,197.926367 L17.2011719,197.859961 L17.2011719,197.594336 L17.2675781,197.660742 L17.4003906,197.52793 C17.4003906,197.439388 17.3339844,197.395117 17.2011719,197.395117 L17.2011719,197.395117 L17.2011719,197.328711 L17.4003906,197.063086 C17.4003906,196.75319 17.2233073,196.598242 16.8691406,196.598242 L16.8691406,196.598242 L16.6699219,196.664648 L16.4042969,196.531836 C15.7845052,196.631445 15.4746094,196.874935 15.4746094,197.262305 L15.4746094,197.262305 L15.4746094,197.328711 L15.6074219,197.461523 L15.4746094,197.926367 L15.4746094,197.992773 L15.6738281,198.191992 C15.8177083,198.457617 15.9947917,198.59043 16.2050781,198.59043 L16.2050781,198.59043 L16.0722656,198.922461 C15.3528646,199.962826 14.3733724,200.549414 13.1337891,200.682227 L13.1337891,200.682227 L13.0673828,200.682227 L13.2001953,200.483008 L12.9345703,200.416602 L12.6689453,200.549414 L12.4697266,200.416602 C12.4697266,199.708268 13.1614583,198.441016 14.5449219,196.614844 L14.5449219,196.614844 L15.6074219,195.286719 L16.2714844,194.357031 C18.0865885,192.796484 18.9941406,191.955339 18.9941406,191.833594 C19.2376302,191.711849 19.5696615,191.446224 19.9902344,191.036719 L19.9902344,191.036719 L22.1152344,189.110938 C22.1152344,188.978125 22.1816406,188.911719 22.3144531,188.911719 C22.3476562,188.734635 22.4583333,188.623958 22.6464844,188.579688 C23.4544271,187.65 23.8971354,187.185156 23.9746094,187.185156 C23.9746094,187.052344 24.0188802,186.985938 24.1074219,186.985938 C24.756875,186.368359 25.2901437,185.852622 25.7072281,185.438725 L25.9680719,185.177881 C26.5365448,184.60445 26.8238802,184.277448 26.8300781,184.196875 C27.8040365,183.4 28.2910156,182.846615 28.2910156,182.536719 L28.2910156,182.536719 L28.5566406,182.603125 L28.6894531,182.470313 L28.6894531,182.271094 L28.4238281,182.271094 L28.3574219,182.3375 L28.3574219,182.271094 L28.6894531,181.872656 L28.6894531,181.739844 L28.4902344,181.540625 L28.0917969,181.673438 L27.8925781,181.474219 L27.6933594,181.474219 C27.4720052,181.584896 27.3170573,181.80625 27.2285156,182.138281 L27.2285156,182.138281 L27.4277344,182.204688 C25.5351562,183.898047 24.3398438,185.049089 23.8417969,185.657813 C23.1777344,186.233333 22.8457031,186.565365 22.8457031,186.653906 C22.0266927,187.384375 21.5175781,187.93776 21.3183594,188.314063 C20.610026,188.85638 20.2558594,189.254818 20.2558594,189.509375 C19.9902344,189.597917 19.8574219,189.686458 19.8574219,189.775 C19.5917969,190.007422 19.4589844,190.184505 19.4589844,190.30625 C19.2044271,190.45013 19.0273438,190.649349 18.9277344,190.903906 C18.5292969,191.169531 18.3300781,191.390885 18.3300781,191.567969 C18.0201823,191.75612 17.8652344,191.933203 17.8652344,192.099219 C17.5332031,192.331641 17.156901,192.752214 16.7363281,193.360938 C13.8919271,195.895443 11.65625,197.577734 10.0292969,198.407813 L10.0292969,198.407813 L9.89648438,198.407813 C9.89648438,198.319271 10.0292969,198.230729 10.2949219,198.142188 L10.2949219,198.142188 L10.1621094,198.009375 L10.0292969,198.142188 C9.76367188,198.142188 9.63085938,198.208594 9.63085938,198.341406 C8.74544271,198.429948 8.30273438,198.56276 8.30273438,198.739844 L8.30273438,198.739844 L8.30273438,198.872656 C8.30273438,198.961198 8.36914062,199.005469 8.50195312,199.005469 L8.50195312,199.005469 L8.16992188,199.470313 L8.56835938,199.86875 L8.70117188,199.86875 C9.55338542,199.592057 10.5052083,199.038672 11.5566406,198.208594 C12.1321615,197.865495 12.4199219,197.622005 12.4199219,197.478125 L12.4199219,197.478125 L14.8769531,195.552344 L14.9433594,195.552344 C14.7994792,195.86224 14.6666667,196.017188 14.5449219,196.017188 L14.5449219,196.017188 L14.5449219,196.15 C13.3385417,197.622005 12.6523438,198.551693 12.4863281,198.939063 C12.3424479,199.326432 12.2705078,199.575456 12.2705078,199.686133 C11.8277995,200.139909 11.6064453,200.626888 11.6064453,201.14707 L11.6064453,201.14707 L11.6064453,201.213477 C11.9163411,201.611914 12.1155599,201.811133 12.2041016,201.811133 Z M18.3964844,191.966406 L18.3300781,191.966406 L18.3300781,191.9 L18.3964844,191.833594 L18.3964844,191.767188 L18.3300781,191.700781 C18.6842448,191.623307 18.8613281,191.446224 18.8613281,191.169531 C19.2597656,190.870703 19.4589844,190.671484 19.4589844,190.571875 C19.9902344,190.06276 20.2558594,189.752865 20.2558594,189.642188 C21.0084635,189.033464 21.3847656,188.657161 21.3847656,188.513281 C22.624349,187.329036 23.2441406,186.687109 23.2441406,186.5875 C24.4394531,185.602474 25.0371094,185.049089 25.0371094,184.927344 L25.0371094,184.927344 L26.6308594,183.732031 C26.3098958,184.207943 25.6236979,184.938411 24.5722656,185.923438 C24.1184896,186.532161 23.4322917,187.26263 22.5136719,188.114844 C21.5729167,189.144141 20.5989583,190.051693 19.5917969,190.8375 C19.2154948,191.280208 18.8170573,191.65651 18.3964844,191.966406 L18.3964844,191.966406 Z M22.1484375,199.271094 L21.9492188,199.204688 L22.8789062,198.80625 L22.8789062,198.673438 L21.5507812,199.138281 L21.484375,199.138281 L21.4179688,199.071875 L21.2851562,199.204688 L21.21875,199.204688 L21.1523438,199.138281 L21.0195312,199.271094 C20.7428385,199.149349 20.5214844,198.905859 20.3554688,198.540625 C20.3997396,198.263932 20.6432292,197.799089 21.0859375,197.146094 L21.0859375,197.146094 L22.1484375,196.083594 C23.4433594,195.076432 24.6608073,194.500911 25.8007812,194.357031 L25.8007812,194.357031 L26.8632812,194.489844 L26.8632812,194.55625 C26.2434896,195.76263 25.9335938,196.581641 25.9335938,197.013281 C25.9335938,197.112891 25.3359375,197.555599 24.140625,198.341406 L24.140625,198.341406 L22.1484375,199.271094 Z M28.839,198.657 L27.9755859,198.872656 C27.9755859,198.784115 27.8427734,198.695573 27.5771484,198.607031 L27.5771484,198.607031 L27.5107422,198.607031 L27.4443359,198.673438 L27.3945312,198.739844 L27.328125,198.739844 L27.328125,198.457617 C26.9296875,198.191992 26.7304688,197.843359 26.7304688,197.411719 L26.7304688,197.411719 L27.3945312,196.548438 C27.671224,196.304948 28.0032552,195.663021 28.390625,194.622656 L28.390625,194.622656 L28.4570312,194.622656 L28.4570312,194.689063 L28.390625,195.220313 L28.8554688,194.489844 L28.8554688,194.357031 C28.8554688,194.26849 28.7890625,194.224219 28.65625,194.224219 L28.65625,194.224219 L28.7226562,193.892188 L28.7226562,193.759375 L28.4570312,193.49375 L28.3242188,193.49375 L27.9921875,193.560156 C27.9921875,193.316667 27.4830729,193.139583 26.4648438,193.028906 L26.4648438,193.028906 L26.265625,193.161719 L25.6679688,193.161719 C24.328776,193.582292 23.5097656,193.936458 23.2109375,194.224219 L23.2109375,194.224219 L23.2109375,194.290625 L23.34375,194.290625 L24.0078125,193.958594 L24.0078125,194.091406 L23.9414062,194.157813 C22.6796875,194.677995 21.5065104,195.696224 20.421875,197.2125 L20.421875,197.2125 L20.2890625,197.2125 L20.2226562,197.146094 L20.0898438,197.411719 L20.0898438,197.478125 L20.15625,197.544531 L20.0898438,197.610938 C19.8463542,197.610938 19.625,198.164323 19.4257812,199.271094 L19.4257812,199.271094 L19.4921875,199.536719 C19.7688802,200.001563 20.1451823,200.289323 20.6210938,200.4 L20.6210938,200.4 L21.2851562,200.267188 C22.203776,200.145443 23.7089844,199.414974 25.8007812,198.075781 C25.8007812,199.038672 26.3707682,199.614193 27.5107422,199.802344 C28.3961589,199.569922 28.8388672,199.40944 28.8388672,199.320898 L28.8388672,199.320898 L28.8388672,199.254492 L28.7724609,199.188086 C28.9495443,199.188086 29.0380859,199.12168 29.0380859,198.988867 L29.0380859,198.988867 L29.0380859,198.789648 C29.0380859,198.701107 28.9716797,198.656836 28.8388672,198.656836 L28.839,198.657 Z M29.1875,200.233984 L30.5820312,200.167578 L30.9804688,200.167578 L31.1132812,200.034766 L31.1132812,199.968359 L31.046875,199.901953 L31.3789062,199.901953 L31.3789062,199.968359 L31.2460938,199.968359 L31.2460938,200.034766 L31.7109375,200.101172 L31.84375,199.968359 L31.84375,199.901953 L31.7773438,199.835547 L31.9765625,199.835547 C31.9765625,199.968359 32.0429688,200.034766 32.1757812,200.034766 C32.3085938,200.034766 32.375,199.990495 32.375,199.901953 L32.375,199.901953 L32.5742188,199.968359 C32.7070312,199.968359 32.7734375,199.924089 32.7734375,199.835547 L32.7734375,199.835547 L33.1054688,199.901953 L33.2382812,199.769141 L33.3046875,199.769141 L33.3710938,199.835547 L35.03125,199.304297 C35.6842448,199.149349 36.1269531,198.883724 36.359375,198.507422 L36.359375,198.507422 L36.359375,198.374609 L36.2265625,198.175391 C34.0572917,199.016536 32.2200521,199.437109 30.7148438,199.437109 L30.7148438,199.437109 L30.6484375,199.370703 L30.3828125,199.437109 L30.3828125,199.304297 C29.8958333,199.149349 29.6523438,199.016536 29.6523438,198.905859 L29.6523438,198.905859 L29.6523438,198.839453 C30.9140625,197.411719 31.84375,196.592708 32.4414062,196.382422 C32.6848958,196.094661 33.4153646,195.696224 34.6328125,195.187109 C35.6289062,195.054297 36.2265625,194.855078 36.4257812,194.589453 L36.4257812,194.589453 L36.2929688,194.191016 L36.4257812,193.991797 C36.4257812,193.78151 36.09375,193.648698 35.4296875,193.593359 C34.953776,193.792578 34.577474,194.013932 34.3007812,194.257422 L34.3007812,194.257422 L34.3007812,194.323828 L34.6328125,194.257422 L34.6992188,194.257422 L34.6992188,194.323828 L33.9023438,194.722266 C32.9726562,195.054297 31.4231771,196.271745 29.2539062,198.374609 L29.2539062,198.374609 L29.1875,198.374609 L29.1875,198.241797 C29.0104167,198.241797 28.8111979,198.485286 28.5898438,198.972266 L28.5898438,198.972266 L28.7226562,199.105078 L28.5234375,199.503516 C28.6230469,199.780208 28.844401,200.023698 29.1875,200.233984 L29.1875,200.233984 Z M36.8242188,202.458594 L37.2226562,201.99375 L37.2890625,201.99375 L37.3554688,202.060156 L37.421875,202.060156 C37.7539062,201.407161 38.21875,200.78737 38.8164062,200.200781 C39.6022135,199.271094 40.1113281,198.80625 40.34375,198.80625 L40.34375,198.80625 L40.34375,198.939063 C40.34375,199.116146 40.8085938,199.271094 41.7382812,199.403906 C44.2617188,200.78737 45.8776042,201.479102 46.5859375,201.479102 L46.5859375,201.479102 L46.6523438,201.479102 L46.71875,201.412695 L46.71875,201.479102 L46.7851562,201.545508 L47.0507812,201.479102 L48.1132812,201.611914 L48.1132812,201.545508 C48.6998698,201.479102 49.4303385,201.362891 50.3046875,201.196875 C50.4153646,201.064063 50.5260417,200.997656 50.6367188,200.997656 C50.8470052,200.776302 51.0019531,200.665625 51.1015625,200.665625 C52.4739583,199.558854 53.1601562,198.894792 53.1601562,198.673438 L53.1601562,198.673438 L52.9609375,198.474219 L52.828125,198.474219 C51.4778646,199.62526 50.7252604,200.200781 50.5703125,200.200781 C50.0722656,200.366797 49.1425781,200.571549 47.78125,200.815039 L47.78125,200.815039 L47.6484375,200.549414 L47.4492188,200.549414 L47.4492188,200.748633 L47.1835938,200.748633 L47.1835938,200.682227 C47.1835938,200.538346 46.7851562,200.361263 45.9882812,200.150977 L45.9882812,200.150977 L45.7226562,200.217383 L45.7226562,200.08457 C45.125,199.852148 44.7486979,199.780208 44.59375,199.86875 L44.59375,199.86875 L44.4609375,199.86875 L44.3945312,199.935156 C44.2727865,199.62526 44.0957031,199.470313 43.8632812,199.470313 L43.8632812,199.470313 L43.8632812,199.3375 C43.4095052,199.149349 42.9889323,198.861589 42.6015625,198.474219 L42.6015625,198.474219 L42.6015625,198.407813 C45.6119792,197.699479 47.5598958,196.68125 48.4453125,195.353125 C48.7994792,194.578385 49.0208333,194.179948 49.109375,194.157813 L49.109375,194.157813 L49.1757812,194.357031 L49.2421875,194.357031 L49.3085938,194.290625 L49.2421875,193.759375 L49.3085938,193.49375 C49.3085938,193.084245 48.9322917,192.840755 48.1796875,192.763281 L48.1796875,192.763281 L47.9140625,192.829688 L47.6484375,192.763281 L47.515625,192.763281 L47.3164062,192.9625 L47.25,192.9625 L47.1835938,192.896094 L47.1171875,192.896094 C46.9401042,192.896094 46.5638021,193.051042 45.9882812,193.360938 L45.9882812,193.360938 L45.9882812,193.427344 L46.0546875,193.49375 L46.5859375,193.360938 L46.6523438,193.360938 L46.6523438,193.427344 C45.468099,193.715104 43.4316406,195.0875 40.5429688,197.544531 L40.5429688,197.544531 L40.4765625,197.544531 L40.4101562,197.478125 L41.6054688,195.950781 C42.125651,195.187109 42.7675781,194.523047 43.53125,193.958594 L43.53125,193.958594 L48.4453125,189.974219 C50.1276042,188.513281 51.4778646,187.229427 52.4960938,186.122656 C54.3776042,184.030859 55.4622396,182.370703 55.75,181.142188 L55.75,181.142188 L55.8164062,181.142188 L55.8828125,181.474219 L56.015625,181.341406 L56.015625,181.275 L55.9492188,180.876563 L55.9492188,180.810156 L56.015625,180.74375 L56.015625,180.677344 C56.015625,180.278906 55.5950521,180.079688 54.7539062,180.079688 C54.1230469,180.323177 53.6803385,180.610938 53.4257812,180.942969 C52.750651,181.407813 52.3964844,181.739844 52.3632812,181.939063 L52.3632812,181.939063 L52.4296875,181.939063 L52.5625,181.80625 L52.7617188,181.80625 L52.7617188,181.872656 C52.639974,181.872656 52.0644531,182.403906 51.0351562,183.466406 C48.7330729,186.122656 45.9440104,189.597917 42.6679688,193.892188 C41.2402344,195.519141 39.7792969,196.708919 38.2851562,197.461523 L38.2851562,197.461523 L36.7578125,198.258398 L36.5585938,198.258398 C36.9238281,197.992773 37.1894531,197.859961 37.3554688,197.859961 L37.3554688,197.859961 L37.3554688,197.727148 L37.2226562,197.727148 L36.5585938,198.05918 L36.359375,197.992773 L36.09375,198.125586 L36.09375,198.05918 C35.8391927,198.103451 35.7063802,198.169857 35.6953125,198.258398 C35.1197917,198.258398 34.8320312,198.413346 34.8320312,198.723242 L34.8320312,198.723242 L34.8320312,198.856055 L34.9648438,198.856055 L34.9648438,198.922461 C34.7877604,198.944596 34.6992188,199.011003 34.6992188,199.12168 L34.6992188,199.12168 L34.6992188,199.387305 L34.8320312,199.387305 C34.8984375,199.65293 35.03125,199.785742 35.2304688,199.785742 C35.639974,199.697201 36.1048177,199.497982 36.625,199.188086 L36.625,199.188086 L37.5546875,198.723242 C39.3255208,197.682878 40.2109375,197.085221 40.2109375,196.930273 L40.2109375,196.930273 L40.2773438,196.863867 L40.34375,196.930273 L40.4765625,196.930273 L37.6210938,200.134375 L37.5546875,200.134375 L37.4882812,200.067969 L37.3554688,200.067969 L37.2890625,200.134375 L37.3554688,200.4 L37.3554688,200.466406 L37.2890625,200.466406 L37.2890625,200.333594 L37.15625,200.333594 C36.8020833,200.765234 36.5143229,201.052995 36.2929688,201.196875 C36.3261719,201.418229 36.3925781,201.528906 36.4921875,201.528906 L36.4921875,201.528906 L36.2265625,201.99375 L36.2929688,202.060156 L36.5585938,201.99375 L36.625,201.99375 L36.625,202.060156 L36.5585938,202.126563 L36.5585938,202.325781 L36.6914062,202.458594 L36.8242188,202.458594 Z M43.9296875,193.028906 L46.3203125,189.907813 L49.8398438,185.657813 C52.2858073,182.946224 53.9238281,181.573828 54.7539062,181.540625 L54.7539062,181.540625 L54.8203125,181.540625 L54.6210938,181.872656 L54.6875,182.071875 C54.5546875,182.071875 54.2890625,182.448177 53.890625,183.200781 L53.890625,183.200781 L53.890625,183.333594 L53.9570312,183.4 L53.890625,183.466406 L53.8242188,183.466406 L53.7578125,183.4 L53.8242188,183.599219 L53.625,183.864844 L53.5585938,183.864844 L53.4921875,183.798438 L53.4257812,183.798438 L53.359375,183.864844 L53.4921875,183.997656 C53.0716146,184.683854 52.2083333,185.702083 50.9023438,187.052344 C47.9583333,189.830339 45.6341146,191.822526 43.9296875,193.028906 L43.9296875,193.028906 Z M42.0703125,197.478125 L41.7382812,197.411719 L41.7382812,197.345313 L42.4023438,196.747656 C44.9147135,194.888281 46.7298177,193.958594 47.8476562,193.958594 L47.8476562,193.958594 L48.1132812,194.091406 C48.0136719,194.489844 47.3938802,195.131771 46.2539062,196.017188 L46.2539062,196.017188 L44.4609375,196.880469 L44.4609375,196.946875 L44.5273438,197.013281 L44.0625,197.2125 L44.0625,197.146094 L43.9960938,197.079688 L44.3945312,197.013281 L44.3945312,196.880469 L44.328125,196.814063 C43.6640625,196.980078 43.3320312,197.112891 43.3320312,197.2125 L43.3320312,197.2125 L43.265625,197.146094 C43.0442708,197.146094 42.9114583,197.2125 42.8671875,197.345313 L42.8671875,197.345313 L42.8007812,197.345313 L42.734375,197.278906 L42.6015625,197.278906 L42.5351562,197.345313 L42.46875,197.278906 C42.2473958,197.278906 42.1145833,197.345313 42.0703125,197.478125 L42.0703125,197.478125 Z M45.390625,196.747656 L45.3242188,196.747656 C45.3795573,196.625911 45.7558594,196.404557 46.453125,196.083594 L46.453125,196.083594 L47.515625,195.286719 L47.515625,195.419531 C46.7630208,195.995052 46.0546875,196.43776 45.390625,196.747656 L45.390625,196.747656 Z M43.0664062,197.478125 L43.0664062,197.345313 L43.796875,197.146094 L43.8632812,197.146094 C43.8632812,197.256771 43.5976562,197.367448 43.0664062,197.478125 L43.0664062,197.478125 Z" id="back" fill="#FFFFFF"></path>
            <path d="M49.973512,175.268077 C36.6812808,172.609631 34.0881413,164.564368 34.0881413,153.158776 C34.0881413,149.985792 35.2458517,143.082407 37.5612726,132.448622 C38.4188359,128.932613 38.8476176,125.588116 38.8476176,122.415132 C38.8476176,115.811894 36.2534886,109.444487 31.0652306,103.312909 C25.8769726,97.1813315 18.180342,92.8291977 7.97533871,90.2565078 C17.8373167,87.9410869 25.3838738,83.7604658 30.6150099,77.7146445 C35.846146,71.6688233 38.4617141,64.8726341 38.4617141,57.326077 C38.4617141,53.7243112 37.7327853,48.493175 36.2749277,41.6326686 C34.8170701,34.7721622 34.0881413,29.541026 34.0881413,25.9392602 C34.0881413,15.3054752 36.6812808,7.73187192 49.973512,5.24493835 L52,1 C42.0522657,1 35.0957781,4.95039834 27.0775613,10.824707 C19.0593444,16.6990156 15.050236,24.9959405 15.050236,35.7154818 C15.050236,38.4596844 15.4790176,41.6755468 16.3365809,45.363069 C18.8235145,56.2541229 20.0669813,63.2432638 20.0669813,66.3304917 C20.0669813,78.0791089 13.3779875,85.2397625 0,87.8124524 L0,92.8291977 C13.3779875,95.3161313 20.0669813,102.34815 20.0669813,113.925255 C20.0669813,116.755214 18.8235145,123.872989 16.3365809,135.278581 C15.4790176,139.137616 15.050236,142.396357 15.050236,145.054803 C15.050236,154.487999 18.7591972,162.42046 26.1771198,168.852185 C33.5950424,175.283909 40.8516771,179.513016 52,179.513016 L49.973512,175.268077 Z" id="{" fill="#FFFFFF" opacity="0.2"></path>
            <path d="M47.7288136,0 C48.0677953,0.237081356 48.6904976,0.462503898 48.7007973,0.713092373 C48.7818212,2.68484136 48.7457627,4.66140153 48.5543556,6.88086407 C47.0006744,8.13272237 45.5345236,9.03009356 44.3109054,10.1845327 C43.4247293,11.0206129 42.9894853,12.3253286 42.1273885,13.1980393 C39.7775246,15.5768288 38.742071,18.6132005 38.6805364,21.7033281 C38.5982363,25.8359797 39.2045169,29.9885736 39.6170124,34.1224332 C39.8519383,36.4767895 39.9665266,38.9197541 40.7105398,41.1291041 C41.8846031,44.61549 42.6818215,48.09894 42.6488668,51.7758798 C42.6253463,54.4002702 42.6984446,57.026701 42.6180375,59.6488332 C42.5858464,60.6985551 42.3229971,61.7565554 42.0514808,62.7806542 C41.2944136,65.6361727 40.130379,68.2614397 38.7296764,70.9238008 C35.7614708,76.5655053 31.5733056,80.9100549 26.4258771,84.3201147 C22.9606971,86.6157142 19.0484912,88.236539 15.4135508,90.1192124 C16.1463934,90.5205005 17.0056692,91.1557215 17.9693032,91.4910371 C22.9345717,93.2187844 26.9825276,96.4516205 30.8994171,99.7298522 C34.55974,102.793354 37.3612773,106.729641 39.4442027,111.060504 C41.4893164,115.312733 43.2282283,119.657453 42.6688336,124.583611 C42.2102551,128.621963 42.0248337,132.690761 41.6051617,136.734335 C41.3678149,139.021167 41.0081485,141.307844 40.5102761,143.551677 C39.9860281,145.914374 38.678651,148.231713 38.7028544,150.558565 C38.7422998,154.350307 38.2566085,158.09455 39.4014486,162.019571 C40.9920141,167.472762 44.5075692,170.830466 48.7457627,173.898305 C48.7457627,175.874215 48.7457627,177.850125 48.7457627,180 C47.9046878,180 47.0537714,180 45.9441095,179.795387 C43.1628847,178.038072 40.3189,176.832803 38.1859615,174.859097 C33.9596739,170.948321 29.5022642,167.176736 26.9579322,161.742554 C25.3369641,158.280511 23.2291275,155.031816 23.3145776,151.005513 C23.3233025,150.594255 23.3564632,150.112889 23.1711832,149.778985 C21.2164005,146.256269 22.4331731,142.470175 22.457559,138.850274 C22.4757278,136.152913 23.757881,133.481621 24.3112478,130.764957 C24.7867808,128.430408 24.9425892,126.031696 25.3931663,123.690886 C25.9793073,120.645827 26.8467136,117.651478 27.3539485,114.595603 C27.883059,111.407939 26.2356608,108.622959 25.0353949,105.872234 C24.0982753,103.724577 22.7437773,101.600096 21.0772519,99.9757098 C19.5049997,98.4432102 17.2008308,97.6933627 15.3647719,96.3928947 C11.9381353,93.9658317 7.83191373,93.6890786 4,92.5423729 C4,91.0013929 4,89.4604129 4.23159237,87.6877892 C5.89752542,87.4246759 7.43519881,87.7131758 8.74327559,87.2907295 C11.0064014,86.5598675 13.166828,85.4663705 15.2993617,84.3850322 C19.75495,82.1257358 23.2427708,78.8205575 25.3109607,74.2359849 C26.0047422,72.6980771 26.2530639,70.9431046 26.5879331,69.2640117 C26.9071829,67.6632432 27.4355973,65.9838712 27.2278849,64.4248754 C26.8625297,61.6826619 25.9317817,59.0209678 25.378421,56.2969907 C24.9199956,54.0403556 24.7406922,51.7276403 24.2997568,49.4666797 C23.7043402,46.4136168 22.486299,43.3946654 22.4344575,40.3457888 C22.3744651,36.8176876 21.7723722,33.2899124 23.1520173,29.6302881 C24.5067573,26.0367188 24.9561298,22.2533176 27.2110193,18.8022336 C29.8905314,14.7012636 32.4064336,10.8055795 36.3702654,7.65476492 C39.2609886,5.3569561 41.9681215,3.10102729 45.4650751,1.83284949 C46.3277617,1.51999475 46.979889,0.626546949 47.7288136,0 Z" id="Path" fill="#989E9F" opacity="0.96110026"></path>
        </g>
    </g>
</svg>