<?xml version="1.0" encoding="UTF-8"?>
<svg width="82px" height="208px" viewBox="0 0 82 208" version="1.1" xmlns="http://www.w3.org/2000/svg" xmlns:xlink="http://www.w3.org/1999/xlink">
    <title>btnBack</title>
    <g id="btnBack" stroke="none" stroke-width="1" fill="none" fill-rule="evenodd">
        <path d="M74.9921875,180.578125 C59.8880208,176.802083 55.3359375,168.729167 55.3359375,156.359375 C55.3359375,152.453125 55.921875,147.570312 57.09375,141.710938 C58.5260417,134.744792 59.2421875,129.276042 59.2421875,125.304688 C59.2421875,118.273437 56.7682292,111.779297 51.8203125,105.822266 C46.8723958,99.8652344 40.1015625,95.2591146 31.5078125,92.0039062 C39.2552083,89.1393229 45.7981771,84.9075521 51.1367188,79.3085938 C56.4752604,73.7096354 59.1445312,67.0039062 59.1445312,59.1914062 C59.1445312,54.9596354 58.4609375,49.3932292 57.09375,42.4921875 C55.8567708,36.6979167 55.2382812,31.7825521 55.2382812,27.7460938 C55.2382812,22.4075521 57.1263021,17.4433594 60.9023438,12.8535156 C64.6783854,8.26367188 67.375,5.3828125 74.9921875,4.2109375 L75.9921875,0.5 C65.640625,1.80208333 58.9003906,6.09895833 51.7714844,13.390625 C44.6425781,20.6822917 41.078125,29.1783854 41.078125,38.8789062 C41.078125,43.3710938 41.8268229,48.6445312 43.3242188,54.6992188 C44.8867188,61.2747396 45.6679688,66.2552083 45.6679688,69.640625 C45.6679688,74.5885417 43.6171875,78.999349 39.515625,82.8730469 C35.4140625,86.7467448 30.0755208,89.2369792 23.5,90.34375 L23.5,94.1523437 C31.0520833,95.4544271 36.6510417,98.139974 40.296875,102.208984 C43.9427083,106.277995 45.765625,110.65625 45.765625,115.34375 C45.765625,118.533854 44.9518229,123.546875 43.3242188,130.382812 C41.9570312,136.242188 41.2734375,141.385417 41.2734375,145.8125 C41.2734375,155.1875 44.7890625,163.602214 51.8203125,171.056641 C58.8515625,178.511068 65.5755208,182.824219 75.9921875,183.996094 L74.9921875,180.578125 Z" id="{" fill="#FFFFFF" fill-rule="nonzero"></path>
        <text id="back" font-family="JellykaSaint-AndrewsQueen, Jellyka Saint-Andrew's Queen" font-size="34" font-weight="normal" fill="#FFFFFF">
            <tspan x="34" y="193.9">back</tspan>
        </text>
    </g>
</svg>