<?xml version="1.0" encoding="UTF-8"?>
<svg width="70px" height="208px" viewBox="0 0 70 208" version="1.1" xmlns="http://www.w3.org/2000/svg" xmlns:xlink="http://www.w3.org/1999/xlink">
    <title>btnNext</title>
    <defs>
        <path d="M53.6887549,92.5973658 C47.5271708,93.2977148 42.5230062,96.0846376 38.4166793,100.592325 C33.6933058,105.777383 32.7769145,111.835123 34.0232096,118.558409 C35.0404122,124.045838 36.3342227,129.470943 37.3729739,134.954584 C41.2742643,155.54985 30.1070184,171.47666 15.0065819,177.586159 C11.7940057,178.885935 5.0462548,180.888715 4.88787462,179.566124 C4.74608827,178.382089 4.17617702,176.903209 6.13862008,176.374915 C9.75722351,175.400766 11.2131993,174.027266 14.4300605,172.053394 C22.0314301,167.389156 23.7126705,159.067346 22.5811609,150.272636 C21.7256659,143.623278 20.0159442,137.16279 18.9472564,130.563506 C16.7276184,116.856974 21.8763763,106.278303 32.1211573,97.6801409 C36.1291858,94.316313 40.7758891,91.9966464 45.7865603,89.9254062 C44.9573845,89.0674813 43.9593658,88.8006042 43.0574081,88.409378 C35.4888032,85.1264822 28.9400543,80.5763968 24.1775453,73.6754444 C19.1338667,66.3670647 17.5911426,58.3937286 18.8906625,49.6584988 C19.9357766,42.6333649 21.7957409,35.7764735 22.7630927,28.7322212 C23.9058219,20.4108581 21.3686404,11.5736289 13.2844886,7.20389856 C10.5324768,5.71635349 9.61896072,4.64407682 6.62797536,3.75569955 C4.98989852,3.26916059 4.20984115,1.57176788 4.87390166,0.0826446622 C5.29583768,-0.863527011 23.1707127,6.44303925 30.2386442,15.4120787 C37.0741936,24.0862308 39.0989292,33.8436373 37.4239821,44.6576062 C36.4210162,51.1330537 34.6175378,57.4299739 33.7287425,63.9361083 C32.7003834,71.4639067 35.5278341,77.1521262 40.9870995,81.8659569 C44.5314135,84.9263247 48.7739477,86.5453451 53.5246951,87.3540065 C53.6887549,89.0640481 53.6887549,90.7345744 53.6887549,92.5973658 Z" id="path-1"></path>
        <filter x="-28.5%" y="-7.8%" width="165.2%" height="117.8%" filterUnits="objectBoundingBox" id="filter-2">
            <feOffset dx="2" dy="2" in="SourceAlpha" result="shadowOffsetOuter1"></feOffset>
            <feGaussianBlur stdDeviation="5" in="shadowOffsetOuter1" result="shadowBlurOuter1"></feGaussianBlur>
            <feColorMatrix values="0 0 0 0 0   0 0 0 0 0   0 0 0 0 0  0 0 0 0.802748033 0" type="matrix" in="shadowBlurOuter1"></feColorMatrix>
        </filter>
    </defs>
    <g id="btnNext" stroke="none" stroke-width="1" fill="none" fill-rule="evenodd">
        <g id="v4" transform="translate(0.362793, 2.000000)" fill-rule="nonzero">
            <g id="Path" opacity="0.6">
                <use fill="black" fill-opacity="1" filter="url(#filter-2)" xlink:href="#path-1"></use>
                <use fill="#CAD4D7" xlink:href="#path-1"></use>
            </g>
            <path d="M7.9296875,200.768164 C8.34505208,200.739844 8.55273438,200.683203 8.55273438,200.598242 L8.55273438,200.598242 L8.609375,200.654883 L9.2890625,200.37168 C10.1858724,199.843034 10.7758789,199.371029 11.059082,198.955664 L11.059082,198.955664 L11.059082,198.785742 L10.9458008,198.672461 L10.7192383,198.729102 C9.82242839,199.48431 9.17578125,199.861914 8.77929688,199.861914 L8.77929688,199.861914 L8.72265625,199.861914 L8.72265625,199.805273 C8.87369792,199.805273 8.98697917,199.729753 9.0625,199.578711 L9.0625,199.578711 L8.72265625,199.578711 C8.58105469,199.691992 8.44889323,199.748633 8.32617188,199.748633 L8.32617188,199.748633 L7.9296875,199.748633 L7.58984375,199.408789 C7.58984375,199.295508 7.53320312,199.238867 7.41992188,199.238867 L7.41992188,199.238867 L7.53320312,199.125586 L7.4765625,198.955664 C7.4765625,198.700781 7.98632812,197.605729 9.00585938,195.670508 C9.00585938,195.481706 9.04361979,195.387305 9.11914062,195.387305 L9.11914062,195.387305 L9.17578125,195.613867 L9.23242188,195.613867 L9.2890625,195.557227 L9.23242188,194.99082 L9.2890625,194.764258 C9.2890625,194.528255 8.93033854,194.377214 8.21289062,194.311133 C7.66536458,194.330013 6.87239583,194.858659 5.83398438,195.89707 L5.83398438,195.89707 L5.83398438,195.953711 C5.96614583,195.953711 6.09830729,195.87819 6.23046875,195.727148 L6.23046875,195.727148 L6.28710938,195.727148 L4.53125,197.313086 L4.984375,196.576758 L5.04101562,196.576758 L5.09765625,196.633398 L5.60742188,196.180273 L5.60742188,196.123633 L5.4375,196.123633 L5.38085938,196.180273 L5.2109375,196.406836 L5.15429688,196.406836 L5.15429688,196.350195 C5.72070312,195.576107 6.00390625,195.066341 6.00390625,194.820898 L6.00390625,194.820898 L6.06054688,194.820898 L6.1171875,195.047461 L6.06054688,195.047461 L6.06054688,195.104102 L6.1171875,195.160742 L6.45703125,194.820898 L6.45703125,194.764258 C6.45703125,194.688737 6.40039062,194.650977 6.28710938,194.650977 L6.28710938,194.650977 L6.28710938,194.594336 L6.40039062,194.424414 L6.40039062,194.197852 L6.17382812,193.971289 L6.06054688,193.971289 L5.890625,194.08457 L5.72070312,193.914648 L5.60742188,193.914648 C5.53190104,193.914648 5.2109375,194.311133 4.64453125,195.104102 L4.64453125,195.104102 L4.64453125,195.160742 L4.70117188,195.160742 L4.87109375,195.047461 L4.92773438,195.047461 L4.92773438,195.104102 C4.25748698,195.736589 3.23795573,196.605078 1.86914062,197.70957 C1.86914062,197.596289 1.83138021,197.539648 1.75585938,197.539648 C1.60481771,197.615169 1.52929688,197.70957 1.52929688,197.822852 C0.613606771,198.342057 0.141601562,198.644141 0.11328125,198.729102 L0.11328125,198.729102 L0.11328125,198.842383 C0.11328125,198.917904 0.207682292,198.955664 0.396484375,198.955664 L0.396484375,198.955664 L0.396484375,199.012305 C0.217122396,199.012305 0.0849609375,199.125586 0,199.352148 C0,199.427669 0.325683594,199.371029 0.977050781,199.182227 L0.977050781,199.182227 L3.54003906,197.355566 L4.20556641,196.562598 L4.16308594,196.74668 L3.58251953,197.567969 L3.63916016,197.624609 L3.51171875,197.70957 L3.51171875,197.766211 L3.56835938,197.822852 L3.51171875,197.992773 L3.45507812,197.936133 L3.34179688,198.049414 L3.34179688,198.106055 L3.3984375,198.162695 L3.34179688,198.162695 L3.34179688,198.275977 L3.28515625,198.275977 L3.22851562,198.219336 L3.171875,198.219336 C2.9358724,198.644141 2.57714844,199.078385 2.09570312,199.52207 L2.09570312,199.52207 L2.09570312,199.635352 C2.09570312,199.748633 2.17122396,199.805273 2.32226562,199.805273 L2.32226562,199.805273 L2.09570312,200.145117 L2.20898438,200.258398 L2.32226562,200.145117 L2.37890625,200.145117 L2.43554688,200.201758 L2.32226562,200.42832 L2.4921875,200.598242 L2.60546875,200.598242 C2.69986979,200.579362 2.79427083,200.447201 2.88867188,200.201758 L2.88867188,200.201758 L3.05859375,200.258398 C3.20963542,200.258398 3.28515625,200.201758 3.28515625,200.088477 L3.28515625,200.088477 L3.28515625,200.031836 L3.22851562,199.975195 L3.28515625,199.975195 L3.22851562,199.805273 C3.3984375,199.371029 3.98372396,198.634701 4.984375,197.596289 C6.59863281,196.161393 7.6936849,195.443945 8.26953125,195.443945 L8.26953125,195.443945 L8.32617188,195.443945 C8.27897135,195.632747 8.22233073,195.727148 8.15625,195.727148 C8.09960938,196.104753 8.02408854,196.293555 7.9296875,196.293555 C7.86360677,196.557878 7.80696615,196.690039 7.75976562,196.690039 L7.75976562,196.690039 L6.85351562,198.729102 L6.91015625,198.899023 C6.86295573,199.163346 6.8063151,199.295508 6.74023437,199.295508 L6.74023437,199.295508 L6.796875,199.635352 C6.796875,200.220638 7.17447917,200.598242 7.9296875,200.768164 Z M12.6875,200.584082 L13.5371094,200.470801 L13.7070313,200.527441 L13.7636719,200.527441 L13.8203125,200.470801 L14.1601563,200.527441 L14.2734375,200.41416 L14.2734375,200.35752 L14.2167969,200.300879 L14.3867188,200.244238 L14.5566406,200.244238 L14.5566406,200.300879 L14.4433594,200.300879 L14.4433594,200.41416 L14.7265625,200.41416 L14.7832031,200.35752 L14.7265625,200.300879 C14.7265625,200.244238 14.8020833,200.187598 14.953125,200.130957 L14.953125,200.130957 L15.0097656,200.187598 L15.0097656,200.244238 L14.953125,200.300879 L14.953125,200.35752 L15.1796875,200.35752 L15.2363281,200.300879 L15.1796875,200.244238 L15.2929688,200.130957 L15.5195313,200.130957 L15.5195313,200.187598 L15.4628906,200.244238 L15.4628906,200.300879 L15.5761719,200.300879 C15.5761719,200.149837 15.6139323,200.074316 15.6894531,200.074316 L15.6894531,200.074316 L15.9160156,200.074316 L15.9160156,200.130957 L15.8027344,200.130957 L15.8027344,200.244238 L16.0292969,200.244238 L16.0292969,200.187598 C16.0292969,200.064876 16.3125,199.970475 16.8789063,199.904395 L16.8789063,199.904395 L16.9355469,199.904395 L16.8789063,199.961035 L16.8789063,200.017676 L16.9355469,200.074316 L16.9921875,200.074316 L17.0488281,200.017676 L16.9921875,199.961035 C16.9921875,199.885514 17.2659505,199.710872 17.8134766,199.437109 L17.8134766,199.437109 L17.7568359,199.49375 L17.7568359,199.550391 L17.8134766,199.607031 L17.8701172,199.607031 L17.9267578,199.550391 L17.9267578,199.49375 L17.8701172,199.437109 L18.3798828,199.323828 L18.3232422,199.380469 L18.4365234,199.49375 L18.4931641,199.49375 C18.4931641,199.342708 18.5309245,199.267188 18.6064453,199.267188 L18.6064453,199.267188 L18.6630859,199.267188 L18.6064453,199.323828 L18.6064453,199.380469 L18.6630859,199.437109 C18.8896484,199.437109 19.0029297,199.361589 19.0029297,199.210547 C19.1917318,199.210547 19.3427734,199.116146 19.4560547,198.927344 L19.4560547,198.927344 L19.2861328,198.757422 C16.6334635,199.52207 14.5660807,199.904395 13.0839844,199.904395 L13.0839844,199.904395 L12.9707031,199.904395 L12.9707031,199.847754 L13.0273438,199.791113 L13.0273438,199.677832 L12.9140625,199.677832 L12.9140625,199.847754 L12.6875,199.847754 L12.6875,199.791113 L12.7441406,199.734473 L12.5742188,199.564551 L12.5175781,199.564551 L12.4609375,199.621191 C12.4420573,199.51735 12.2910156,199.441829 12.0078125,199.394629 C11.8945313,199.243587 11.78125,199.168066 11.6679688,199.168066 L11.6679688,199.168066 L11.5546875,198.828223 L11.6113281,198.54502 L11.5546875,198.488379 C15.1041667,196.949642 17.2942708,195.722428 18.125,194.806738 L18.125,194.806738 L18.2382813,194.296973 L18.2949219,194.296973 C18.3704427,194.296973 18.4082031,194.372493 18.4082031,194.523535 L18.4082031,194.523535 L18.578125,194.353613 L18.578125,194.296973 L18.4082031,194.127051 L18.578125,193.900488 C18.578125,193.598405 18.3704427,193.447363 17.9550781,193.447363 L17.9550781,193.447363 L17.8984375,193.447363 L17.8417969,193.504004 L17.671875,193.390723 L16.4257813,193.787207 C15.5950521,194.108171 14.9908854,194.410254 14.6132813,194.693457 L14.6132813,194.693457 L14.6132813,194.750098 L14.7265625,194.750098 C14.9625651,194.561296 15.1513672,194.466895 15.2929688,194.466895 L15.2929688,194.466895 L15.3496094,194.466895 L15.3496094,194.523535 C14.0279948,195.089941 12.8007813,196.015072 11.6679688,197.298926 L11.6679688,197.298926 L11.6113281,197.298926 C11.8567708,196.921322 12.0266927,196.73252 12.1210938,196.73252 L12.1210938,196.73252 L12.1210938,196.562598 L11.6679688,196.959082 C11.3186849,197.525488 11.0732422,197.808691 10.9316406,197.808691 L10.9316406,197.808691 L10.9316406,197.978613 L11.0449219,197.978613 L11.0449219,198.035254 L10.4077148,198.644141 L10.4077148,198.530859 L10.5776367,198.474219 L10.5776367,198.417578 L10.5209961,198.360938 L10.2802734,198.233496 L10.0395508,198.516699 C9.99235026,199.375749 10.2661133,199.607031 10.8608398,199.210547 L10.8608398,199.210547 L10.8608398,199.49375 C10.7947591,199.890234 11.2903646,200.234798 12.3476563,200.527441 L12.3476563,200.527441 L12.5742188,200.470801 L12.6875,200.584082 Z M12.1777344,197.582129 L12.1777344,197.525488 C13.4521484,196.109473 15.0758464,195.146582 17.0488281,194.636816 L17.0488281,194.636816 L16.6523438,195.033301 L16.6523438,195.089941 L16.8222656,195.089941 C16.8222656,195.00498 16.9544271,194.872819 17.21875,194.693457 L17.21875,194.693457 L17.2753906,194.693457 C16.8411458,195.288184 15.1419271,196.251074 12.1777344,197.582129 L12.1777344,197.582129 Z M24.0581055,201.872656 C24.5678711,201.872656 25.285319,201.381771 26.2104492,200.4 C27.0222982,199.965755 27.456543,199.663672 27.5131836,199.49375 C27.7019857,199.49375 27.7963867,199.418229 27.7963867,199.267188 L27.7963867,199.267188 L27.8530273,199.267188 L27.909668,199.437109 L27.8530273,199.437109 L27.8530273,199.550391 L27.7963867,199.49375 L27.7397461,199.49375 L27.6831055,199.550391 C27.824707,200.116797 27.9757487,200.4 28.1362305,200.4 C28.1362305,200.720964 28.6648763,201.041927 29.722168,201.362891 L29.722168,201.362891 L29.8920898,201.30625 L29.8920898,201.362891 L29.9487305,201.419531 L30.5151367,201.362891 L31.081543,201.362891 L31.1948242,201.249609 L31.2514648,201.30625 C31.6762695,201.30625 32.0916341,201.230729 32.4975586,201.079688 C35.3956706,199.956315 36.8447266,199.356868 36.8447266,199.281348 L36.8447266,199.281348 L36.8447266,199.224707 L36.7880859,199.168066 C36.9013672,199.168066 36.976888,199.092546 37.0146484,198.941504 L37.0146484,198.941504 L36.9013672,198.714941 L36.7880859,198.714941 C34.4313151,199.645931 32.7323209,200.25589 31.6911032,200.544817 L31.647207,200.557 L31.6479492,200.4 L31.5913086,200.4 L31.4780273,200.513281 L31.4780273,200.569922 L31.598207,200.57 L31.5398539,200.585749 C31.1984498,200.675638 30.9376235,200.7262 30.7573747,200.737436 L30.6850586,200.739844 L30.4018555,200.683203 L30.3452148,200.739844 L29.8920898,200.683203 L30.0053711,200.569922 L29.8920898,200.4 C29.7410482,200.4 29.6655273,200.456641 29.6655273,200.569922 L29.6655273,200.569922 L29.5522461,200.569922 L29.5522461,200.513281 L29.6088867,200.456641 L29.6088867,200.343359 L29.269043,200.173438 L29.2124023,200.173438 L29.1557617,200.230078 C29.1557617,200.116797 29.0802409,200.022396 28.9291992,199.946875 L28.9291992,199.946875 L28.815918,199.946875 L28.815918,200.060156 L28.7026367,200.060156 L28.815918,199.890234 L28.815918,199.833594 L28.4194336,199.153906 L28.5327148,198.927344 C28.5327148,198.851823 28.4760742,198.814063 28.362793,198.814063 L28.362793,198.814063 L28.362793,198.757422 C28.362793,198.5875 28.5515951,198.304297 28.9291992,197.907813 C30.3452148,196.510677 31.4780273,195.604427 32.3276367,195.189063 L32.3276367,195.189063 L32.7807617,195.245703 C33.0073242,195.245703 33.1206055,195.132422 33.1206055,194.905859 L33.1206055,194.905859 L33.4038086,194.9625 C33.5926107,194.93418 33.6870117,194.877539 33.6870117,194.792578 L33.6870117,194.792578 L33.6870117,194.622656 L33.5737305,194.509375 L33.5170898,194.509375 L33.6303711,194.169531 C33.5831706,193.999609 33.4321289,193.867448 33.1772461,193.773047 L33.1772461,193.773047 L33.0073242,193.829688 L32.6674805,193.716406 C31.7989909,194.05625 31.081543,194.433854 30.5151367,194.849219 L30.5151367,194.849219 L29.5522461,195.755469 L29.5522461,195.812109 L29.6088867,195.86875 L29.8920898,195.642188 L29.9487305,195.642188 L29.3256836,196.265234 C29.4106445,195.774349 29.5050456,195.453385 29.6088867,195.302344 L29.6088867,195.302344 L29.3256836,194.679297 L29.3256836,194.622656 L29.3823242,194.622656 C29.4012044,194.773698 29.4578451,194.849219 29.5522461,194.849219 L29.5522461,194.849219 L29.6088867,194.849219 C29.6088867,194.358333 29.3068034,194.01849 28.7026367,193.829688 L28.7026367,193.829688 L28.5327148,193.886328 L27.909668,193.773047 L27.8530273,193.773047 L27.7963867,193.829688 L27.7397461,193.773047 L27.6831055,193.773047 L27.6831055,193.886328 C27.8341471,193.886328 27.909668,193.924089 27.909668,193.999609 L27.909668,193.999609 L27.5698242,193.999609 C26.1349284,193.999609 23.7937826,195.151302 20.5463867,197.454688 C20.5463867,197.341406 20.5086263,197.284766 20.4331055,197.284766 L20.4331055,197.284766 L20.3764648,197.284766 L20.0932617,197.624609 C19.8666992,197.624609 19.753418,197.68125 19.753418,197.794531 L19.753418,197.794531 L19.1870117,198.275977 L18.125,198.5875 L18.2241211,198.969824 L18.847168,199.224707 L18.571207,199.256 L18.6583659,199.306521 C18.9171821,199.457038 19.0844489,199.541704 19.1601664,199.560519 L19.1870117,199.564551 C19.6778971,199.101986 19.9611003,198.870703 20.0366211,198.870703 C20.3953451,198.417578 20.7163086,198.077734 20.9995117,197.851172 C21.3487956,197.549089 22.3966471,196.79388 24.1430664,195.585547 C25.2947591,195.189063 25.8706055,194.94362 25.8706055,194.849219 L25.8706055,194.849219 L25.9272461,194.905859 C26.1538086,194.868099 26.2670898,194.811458 26.2670898,194.735938 C26.6069336,194.735938 26.7768555,194.698177 26.7768555,194.622656 L26.7768555,194.622656 L26.8334961,194.679297 L27.5131836,194.622656 L28.0229492,194.622656 L28.0795898,194.679297 C28.5704753,194.764258 28.815918,194.95306 28.815918,195.245703 L28.815918,195.245703 L28.815918,195.528906 C28.815918,195.925391 28.6837565,196.302995 28.4194336,196.661719 L28.4194336,196.661719 L28.4760742,196.718359 L28.4194336,196.775 L28.4194336,196.831641 L28.4760742,196.888281 L28.362793,196.888281 C28.362793,197.001563 28.3061523,197.058203 28.1928711,197.058203 C28.1928711,197.379167 27.8341471,197.926693 27.1166992,198.700781 L27.1166992,198.700781 L26.6069336,199.040625 C25.5024414,199.295508 24.6150716,199.635352 23.9448242,200.060156 C23.7277018,200.154557 23.5766602,200.36224 23.4916992,200.683203 L23.4916992,200.683203 L23.6049805,200.966406 L23.4916992,201.30625 C23.7654622,201.674414 23.9542643,201.863216 24.0581055,201.872656 Z M39.2236328,200.584082 C39.8372396,200.319759 40.422526,199.956315 40.9794922,199.49375 L40.9794922,199.49375 L40.9794922,199.295508 L40.9228516,199.238867 L41.3759766,198.658301 L41.3759766,198.530859 L41.2485352,198.403418 L41.1777344,198.403418 L40.9228516,198.60166 L40.8520508,198.60166 C40.8520508,198.384538 40.8095703,198.275977 40.7246094,198.275977 L40.7246094,198.275977 L40.6679688,198.275977 L40.2856445,198.658301 C40.0402018,199.035905 39.7050781,199.248307 39.2802734,199.295508 L39.2802734,199.295508 L39.152832,199.295508 C39.152832,199.172786 39.0914714,199.111426 38.96875,199.111426 L38.96875,199.111426 L39.0253906,198.729102 C39.5917969,197.105404 39.9363607,196.293555 40.059082,196.293555 C40.1157227,195.86875 40.2006836,195.656348 40.3139648,195.656348 L40.3139648,195.656348 L40.7670898,194.877539 C40.7670898,194.669857 40.8095703,194.566016 40.8945312,194.566016 C41.055013,194.178971 41.3712565,193.688086 41.8432617,193.093359 L41.8432617,193.093359 L44.0239258,190.006445 C44.0239258,189.685482 44.3873698,189.430599 45.1142578,189.241797 L45.1142578,189.241797 L45.1850586,189.312598 L45.3125,189.312598 L45.4399414,189.185156 L45.6240234,189.241797 L46.2045898,189.043555 L46.2753906,189.114355 L46.3320312,189.114355 L46.402832,189.043555 L46.4594727,189.114355 L46.5302734,189.114355 L46.6577148,188.986914 L46.9125977,189.043555 L47.2949219,188.916113 L47.3657227,188.986914 L47.7480469,188.859473 L48.0029297,188.916113 L48.1303711,188.788672 L48.5126953,188.859473 L49.0224609,188.66123 L49.0224609,188.732031 L49.0932617,188.788672 L49.4755859,188.66123 L49.7304688,188.732031 L49.8579102,188.60459 L49.9287109,188.66123 L50.1835938,188.60459 L50.4951172,188.66123 L50.9482422,188.533789 L51.019043,188.533789 L51.0756836,188.60459 L51.5288086,188.477148 L51.840332,188.533789 L52.2368164,188.406348 L52.4208984,188.477148 L53.0581055,188.349707 L53.4545898,188.406348 L54.1484375,188.278906 L54.6723633,188.349707 L55.0546875,188.222266 L55.0546875,188.278906 L55.2387695,188.222266 L55.5644531,188.278906 L56.5839844,188.094824 L56.6547852,188.151465 L56.7114258,188.151465 L56.7822266,188.094824 L56.8388672,188.094824 L56.909668,188.151465 L58.1274414,188.024023 L58.184082,188.094824 L59.0195312,188.024023 L59.7275391,188.094824 L60.4921875,187.967383 L60.5629883,187.967383 L60.6196289,188.024023 L60.6904297,188.024023 L60.7470703,187.967383 L62.2338867,188.024023 L63.253418,187.967383 L64.7260742,188.024023 L64.980957,187.967383 C64.980957,188.090104 65.4718424,188.175065 66.4536133,188.222266 L66.4536133,188.222266 L66.4536133,188.349707 L66.3969727,188.406348 L66.4536133,188.406348 L66.5244141,188.477148 L66.5810547,188.477148 L66.5810547,188.349707 L66.5244141,188.278906 L66.6518555,188.278906 C66.7273763,188.278906 66.788737,188.387467 66.8359375,188.60459 L66.8359375,188.60459 L67.0341797,188.533789 L67.2890625,188.66123 L67.2890625,188.732031 C67.0719401,188.760352 66.9633789,188.821712 66.9633789,188.916113 C66.9633789,189.001074 67.0719401,189.043555 67.2890625,189.043555 C67.2890625,189.307878 67.331543,189.440039 67.4165039,189.440039 L67.4165039,189.440039 L67.6147461,189.440039 C68.0773112,189.373958 68.3085938,189.265397 68.3085938,189.114355 L68.3085938,189.114355 L69.0166016,189.241797 L69.144043,189.114355 L69.0874023,188.788672 L69.2714844,188.732031 L69.5263672,188.916113 L69.7246094,188.916113 L69.8520508,188.788672 L69.8520508,188.66123 C69.8520508,188.566829 69.7434896,188.505469 69.5263672,188.477148 L69.5263672,188.477148 L69.5263672,188.406348 C69.6585286,188.406348 69.7246094,188.363867 69.7246094,188.278906 L69.7246094,188.278906 L69.7246094,188.222266 C69.7246094,187.976823 69.6160482,187.825781 69.3989258,187.769141 L69.3989258,187.769141 L69.0166016,187.825781 L68.7617188,187.69834 L68.1245117,187.825781 L67.9262695,187.69834 L67.2182617,187.769141 L67.2182617,187.896582 L65.3066406,187.69834 L64.9243164,187.769141 L64.5986328,187.641699 L62.9985352,187.69834 L62.5454102,187.641699 L62.4887695,187.69834 L62.4887695,187.641699 L62.2905273,187.69834 L62.2338867,187.69834 L62.1630859,187.641699 L61.9648438,187.69834 L61.9082031,187.641699 L61.8374023,187.641699 L61.6533203,187.769141 L59.7983398,187.769141 L59.4726562,187.69834 L59.4726562,187.769141 L59.4018555,187.825781 L55.8193359,187.967383 L55.4370117,187.896582 L55.3095703,188.024023 L54.7998047,188.024023 L54.4741211,187.967383 C54.4741211,188.052344 54.3655599,188.094824 54.1484375,188.094824 L54.1484375,188.094824 L53.7661133,188.094824 L53.4545898,188.024023 C53.4545898,188.108984 52.746582,188.193945 51.3305664,188.278906 L51.3305664,188.278906 L51.0756836,188.222266 L50.9482422,188.349707 L50.8208008,188.349707 L50.3676758,188.278906 C50.3676758,188.363867 50.1977539,188.429948 49.8579102,188.477148 L49.8579102,188.477148 L49.8579102,188.406348 L49.8012695,188.349707 C49.5841471,188.434668 48.8572591,188.538509 47.6206055,188.66123 L47.6206055,188.66123 L47.4223633,188.60459 L47.2382812,188.732031 L46.9125977,188.66123 C46.9125977,188.727311 46.8276367,188.793392 46.6577148,188.859473 L46.6577148,188.859473 L46.6577148,188.788672 L45.3691406,188.986914 L45.3691406,188.916113 L45.2416992,188.916113 L45.1142578,189.043555 L44.859375,188.986914 L44.8027344,188.986914 L44.7319336,189.043555 L44.7319336,188.986914 C46.3556315,186.589128 47.7669271,184.686947 48.9658203,183.280371 C49.2207031,183.15765 49.3481445,182.860286 49.3481445,182.388281 C49.5369466,182.388281 49.664388,182.30332 49.7304688,182.133398 L49.7304688,182.133398 L49.7304688,182.062598 L49.5463867,181.878516 L49.3481445,181.878516 C49.2631836,181.878516 49.2207031,182.005957 49.2207031,182.26084 L49.2207031,182.26084 L49.0932617,182.26084 L49.0932617,182.190039 L49.1499023,182.133398 L49.1499023,181.935156 L49.0224609,181.807715 L48.8383789,181.807715 L48.5834961,182.062598 L48.5834961,182.133398 L48.6401367,182.190039 L48.4560547,182.444922 L48.4560547,182.643164 L48.5834961,182.643164 L45.8930664,186.423926 C45.2700195,187.188574 44.6044922,188.127865 43.8964844,189.241797 L43.8964844,189.241797 L43.7124023,189.185156 L43.4575195,189.312598 L43.3867188,189.241797 L43.3300781,189.241797 L43.1318359,189.440039 L42.9335938,189.369238 L38.0058594,190.077246 C38.0058594,189.992285 38.0719401,189.949805 38.2041016,189.949805 L38.2041016,189.949805 L38.2041016,189.751563 L38.1333008,189.751563 C38.0294596,189.751563 37.9633789,189.836523 37.9350586,190.006445 L37.9350586,190.006445 L37.878418,190.006445 L37.0429688,189.624121 L36.7880859,189.694922 L36.4624023,189.56748 L36.2783203,189.751563 L36.2783203,189.949805 L36.3349609,190.006445 L36.0800781,190.261328 L36.0800781,190.332129 C36.0800781,190.41709 36.1461589,190.45957 36.2783203,190.45957 C36.4576823,190.761654 36.6276042,190.912695 36.7880859,190.912695 L36.7880859,190.912695 L37.6235352,190.785254 L37.6801758,190.841895 C38.1144206,190.804134 38.331543,190.742773 38.331543,190.657813 L38.331543,190.657813 L38.331543,190.587012 L38.2607422,190.530371 L38.515625,190.45957 L38.5864258,190.45957 L38.5864258,190.530371 L38.3881836,190.587012 L38.515625,190.714453 L38.5864258,190.714453 L38.6430664,190.657813 L38.6430664,190.714453 L38.7138672,190.714453 C38.7421875,190.544531 38.8460286,190.43597 39.0253906,190.38877 L39.0253906,190.38877 L39.0961914,190.38877 L39.0961914,190.45957 L38.96875,190.45957 L38.96875,190.587012 L39.2236328,190.587012 C39.2236328,190.41709 39.2661133,190.332129 39.3510742,190.332129 L39.3510742,190.332129 L39.5493164,190.332129 L39.5493164,190.38877 L39.4785156,190.45957 L39.4785156,190.530371 L39.605957,190.530371 L39.605957,190.38877 L41.8432617,189.879004 L41.9140625,189.879004 L41.9848633,189.949805 C42.7023112,189.789323 43.0610352,189.661882 43.0610352,189.56748 L43.0610352,189.56748 L43.3867188,189.624121 L43.5141602,189.624121 L43.5849609,189.56748 L43.5849609,189.694922 L41.2768555,193.15 C39.8797201,195.151302 38.5722656,196.775 37.3544922,198.021094 C37.3544922,197.851172 37.3120117,197.766211 37.2270508,197.766211 L37.2270508,197.766211 L36.9013672,198.091895 C36.2594401,198.403418 35.9384766,198.61582 35.9384766,198.729102 L35.9384766,198.729102 L35.9384766,198.856543 C35.9384766,198.941504 36.0234375,198.983984 36.1933594,198.983984 L36.1933594,198.983984 L36.1933594,199.040625 C36.0611979,199.040625 35.9337565,199.149186 35.8110352,199.366309 L35.8110352,199.366309 L35.8110352,199.564551 L36.0092773,199.564551 C36.0092773,199.734473 36.3750814,199.543311 37.1066895,198.991064 C37.8382975,198.438818 38.7138672,197.431087 39.7333984,195.967871 C39.7333984,196.279395 39.6484375,196.449316 39.4785156,196.477637 L39.4785156,196.477637 L38.7705078,197.950293 C38.7705078,198.214616 38.7091471,198.346777 38.5864258,198.346777 L38.5864258,198.346777 L38.6430664,198.530859 L38.3881836,199.168066 L38.515625,199.819434 L38.515625,199.876074 L38.3881836,199.748633 L38.3881836,199.437109 L38.2607422,199.437109 L38.2607422,199.876074 C38.5533854,200.348079 38.874349,200.584082 39.2236328,200.584082 Z" id="next" fill="#FFFFFF"></path>
        </g>
    </g>
</svg>