<?xml version="1.0" encoding="UTF-8"?>
<svg width="82px" height="208px" viewBox="0 0 82 208" version="1.1" xmlns="http://www.w3.org/2000/svg" xmlns:xlink="http://www.w3.org/1999/xlink">
    <title>btnNext</title>
    <g id="btnNext" stroke="none" stroke-width="1" fill="none" fill-rule="evenodd">
        <path d="M51.9921875,180.578125 C36.8880208,176.802083 32.3359375,168.729167 32.3359375,156.359375 C32.3359375,152.453125 32.921875,147.570312 34.09375,141.710938 C35.5260417,134.744792 36.2421875,129.276042 36.2421875,125.304688 C36.2421875,118.273437 33.7682292,111.779297 28.8203125,105.822266 C23.8723958,99.8652344 17.1015625,95.2591146 8.5078125,92.0039062 C16.2552083,89.1393229 22.7981771,84.9075521 28.1367188,79.3085938 C33.4752604,73.7096354 36.1445312,67.0039062 36.1445312,59.1914062 C36.1445312,54.9596354 35.4609375,49.3932292 34.09375,42.4921875 C32.8567708,36.6979167 32.2382812,31.7825521 32.2382812,27.7460938 C32.2382812,22.4075521 34.1263021,17.4433594 37.9023437,12.8535156 C41.6783854,8.26367188 44.375,5.3828125 51.9921875,4.2109375 L52.9921875,0.5 C42.640625,1.80208333 35.9003906,6.09895833 28.7714844,13.390625 C21.6425781,20.6822917 18.078125,29.1783854 18.078125,38.8789062 C18.078125,43.3710938 18.8268229,48.6445312 20.3242187,54.6992188 C21.8867187,61.2747396 22.6679688,66.2552083 22.6679688,69.640625 C22.6679688,74.5885417 20.6171875,78.999349 16.515625,82.8730469 C12.4140625,86.7467448 7.07552083,89.2369792 0.5,90.34375 L0.5,94.1523437 C8.05208333,95.4544271 13.6510417,98.139974 17.296875,102.208984 C20.9427083,106.277995 22.765625,110.65625 22.765625,115.34375 C22.765625,118.533854 21.9518229,123.546875 20.3242187,130.382812 C18.9570312,136.242188 18.2734375,141.385417 18.2734375,145.8125 C18.2734375,155.1875 21.7890625,163.602214 28.8203125,171.056641 C35.8515625,178.511068 42.5755208,182.824219 52.9921875,183.996094 L51.9921875,180.578125 Z" id="{" fill="#FFFFFF" fill-rule="nonzero" transform="translate(26.746094, 92.248047) scale(-1, 1) translate(-26.746094, -92.248047) "></path>
        <text id="next" font-family="JellykaSaint-AndrewsQueen, Jellyka Saint-Andrew's Queen" font-size="34" font-weight="normal" fill="#FFFFFF">
            <tspan x="1" y="193.9">next</tspan>
        </text>
    </g>
</svg>